<mxfile host="app.diagrams.net" modified="2023-12-18T12:16:25.209Z" agent="Mozilla/5.0 (Windows NT 10.0; Win64; x64) AppleWebKit/537.36 (KHTML, like Gecko) Chrome/120.0.0.0 Safari/537.36 Edg/120.0.0.0" etag="tgEnNfyRVkAdz-23HNHP" version="22.1.8" type="github" pages="3">
  <diagram name="AVD structure" id="ap3JPyrsMuxOlYAde_o6">
    <mxGraphModel dx="1793" dy="1080" grid="1" gridSize="10" guides="1" tooltips="1" connect="1" arrows="1" fold="1" page="1" pageScale="1" pageWidth="850" pageHeight="1100" math="0" shadow="0">
      <root>
        <mxCell id="0" />
        <mxCell id="1" parent="0" />
        <mxCell id="wDzOlx1E3NnTIssNEkOt-34" value="" style="rounded=0;whiteSpace=wrap;html=1;fillColor=#E6F2FB;strokeColor=none;" parent="1" vertex="1">
          <mxGeometry x="678" y="182" width="982" height="808" as="geometry" />
        </mxCell>
        <mxCell id="wDzOlx1E3NnTIssNEkOt-35" value="" style="rounded=1;whiteSpace=wrap;html=1;dashed=1;fillColor=none;" parent="1" vertex="1">
          <mxGeometry x="705.5" y="260" width="564.5" height="700" as="geometry" />
        </mxCell>
        <mxCell id="wDzOlx1E3NnTIssNEkOt-31" value="" style="rounded=0;whiteSpace=wrap;html=1;fillColor=#E6F2FB;strokeColor=none;" parent="1" vertex="1">
          <mxGeometry x="60" y="182" width="570" height="808" as="geometry" />
        </mxCell>
        <mxCell id="wDzOlx1E3NnTIssNEkOt-32" value="" style="rounded=1;whiteSpace=wrap;html=1;dashed=1;fillColor=none;" parent="1" vertex="1">
          <mxGeometry x="85" y="260" width="525" height="600" as="geometry" />
        </mxCell>
        <mxCell id="wDzOlx1E3NnTIssNEkOt-74" value="" style="edgeStyle=orthogonalEdgeStyle;rounded=0;orthogonalLoop=1;jettySize=auto;html=1;entryX=0.532;entryY=0.017;entryDx=0;entryDy=0;entryPerimeter=0;" parent="1" source="wDzOlx1E3NnTIssNEkOt-14" target="wDzOlx1E3NnTIssNEkOt-16" edge="1">
          <mxGeometry relative="1" as="geometry">
            <mxPoint x="778.9700000000003" y="50" as="targetPoint" />
          </mxGeometry>
        </mxCell>
        <mxCell id="wDzOlx1E3NnTIssNEkOt-14" value="" style="shape=image;verticalLabelPosition=bottom;labelBackgroundColor=default;verticalAlign=top;aspect=fixed;imageAspect=0;image=data:image/png,iVBORw0KGgoAAAANSUhEUgAAAJcAAACbCAYAAABvXQkCAAAAAXNSR0IArs4c6QAAAARnQU1BAACxjwv8YQUAAAAJcEhZcwAADsMAAA7DAcdvqGQAAABhaVRYdFNuaXBNZXRhZGF0YQAAAAAAeyJjbGlwUG9pbnRzIjpbeyJ4IjowLCJ5IjowfSx7IngiOjE1MSwieSI6MH0seyJ4IjoxNTEsInkiOjE1NX0seyJ4IjowLCJ5IjoxNTV9XX1qOLOzAAAtkklEQVR4Xu19C3gb5Znua1m2ZFuW5bsdXxI7dhInMcG5QQgJ4HJLUgiEUyhhubRpNz1LT+lpd+mec8puT0uffQrt04aWAstSSiml0EMaQkkIF9MkdQK5J07iJL7Gl/gm27IsW5ItK+f7fo2skW3ZkiwFmc77PJN4ZjQz/8y8893+7//+qMsEKFAQBqik/xUoCDkUcikIGxRyKQgbFJvrCoIftfOyGeaBtxGtSkS89gaoo5NpT5TrB58zKOS6YnBiaPgimto3Y8RpEls0MfORk/EsESwbUVGfPyWiqMUrBKfTju6+F+EYMZIEGxaLbegsSbG/0N826VefL8xIyTU04sSZ7n7sv9SNGtMATEPDONbZx3oHsxK0yEmMxzxDAuYn63BDTipStDFQRX22qsfpHERL59cxaPtU2uKCLr4c2alPITraIG35/GDGkGuEWnnJYsWO+jbsrOtA64AVw87LcDid4Btw0N+MaCIR80hNakatikIMLbfmp+OLBZm4JjsF8epo8bsrDRe5thC5DktbXIjXLses9F+TakyRtnx+MCPI1Wsbwq6LnXj5TBOaiWA2h5PI5n+zNdEqaKOjcUt+Gr65pBAFSfGChFcSvsm1DDnpz5Hk+vyRK+JtrlpSe//2yXn8+NAFoQIHhkcCIhbDTmq0j1TnXxo78fD7x/D+xS4MOkakvQrChYglF6u7A209+O7+09jd2AHzkCNgUo2FjQjVbLHhXyvP4jckBTsH7dKe6YM9QMvghzD1v0mG+jlpa/Cw2k/Sud6g/4+Q1BuQts4sRKxarOo246dH67C31ThqT8nB9hQb7NdlpeCqND0SY2Mw1xCPE119aBuwo8poRmVbN0x2B5wT3GKSJgbfW1aEjYVZ4u/pYGi4gTzB5zBg3U8+hQNqdTZS9Vug122UfhGYWuyzvIVe8+8w7LiEKFUsdNobkZK0BbExhdIvZgYiklzney14vqoR7zR0CGkjRyzZT1enJ+ErC/NwdVoSEmKiEUdGOttQvM9Kv2cy8v+d1iG8XdeG359rQf+wQzqDB7m6ODxxzTx8IS9N2GTBYNjRgh7zy0JiXb5sFduiVTokJtyBrNQfiXVGIORqbn9IeJWX4bp3VVQ8kvWPwJB4P2KIuDMFEacWe8h4r2juEqpwLLGSScJ8dWE+tt2wGDfnpSMvMQ4p2lhBLiYWg/9OjFUjI16DkhQd/vtVBfjljaW4Jit59DduXCKP85WzzUTm4NQOq6tB2yckaf48SiwXiOxEsGChUunps/dIU+flQZgHtsNKhHN6XSeyEXHkukBG+3tkcFvIcJcjR6fFvywvxjdK5yCPJA6TaCqwNOMY15qcVPz4uhJcSwRjz9EN1rZHO034hGw7k31Y2uo/7MO1RKztRDKztIU4ERVN0mUW9Al3SlsChyHx3nESatjRib6BHbAPnZe2RD4iilzdJLUOtffiNNlbcrB0Wj8nE3fPzUJaXKy01X8woYoNCXiUpFjhmDAEe5J7LnYKTzQQjDj7SJIcJYP7lLTFhWhVGpFjMzSxxdKWwBGvXSGCq9Gi39ENJ0lJvt4xInO/tC2yEVHkqqMX/LdLPeKFu8GqbAkZ7A+X5CMxRi1tDRxMqGUZSbi3OAfppDLlOEXGPzsAE9llvjDsaHXZRbKuG1WUDrq4tWRvrae14NsaFRUnCKqNLaW/PR8Tq95B20HhQMwERBS5LvZbcZJeshzcnbNxbjbZV1ppS/DQkirdVJSNEvIyOXLvho3IzATrIC/TXzgcbbANnZTWXIiJmSVIEa1KkrZMjWhVKrFpvIqPUeciiZwC7tSWw0aSkjvAZwIihlw9tmE0mgcxMEZ6ZJGUuX5WSsgi6qmkYldnpyA1zlt6XTBZ0GH1j1ysEtneGnH2SltYasWTpFkEjWaBtMUbUSo1qbvV0poHCSTpyM+V1jyIIqcgIf4mOucCL+nlGOmla9d5XTtSETHkYnurxeLtCelIDRYbdEgPws6aDKuYXGToy8E9AV1+BlUdI10kPWpJTXmcDpUqGXHaZUQKHzGzy2ok6e5GYvyttBIlhRceJtvqJjrWm+huRKsMiNMsGdPv6MTwSAu1oVtaj1xEDLkGSWKN9RDZ0+NwQqiklhvzSC0yceXg7iC3rddBJNvb0o3ttW34uOk8Gns+Rv/AHvLUzpIxbaGlF8PDzeK3bqijk6CJWSytjQfna7EXmWb4LvIyf4PczOeRot9Cx6XTXt+vQRO7kEgmN+yJp6INg9Ja5CJiyHWZvuaRMZH4GJVqHAlCgTi1K2NiLDhth/swv7PvNJ48fB6/OFGP188dwen212E0/Rxt3U+gvfv76DX/kaTHJekoF1QqHRFhrrTmC1HiNwlxa0hFXifINtUrYKkVFeVtb46Qt+gdV4tMfGbk6rM7UN83KKLxvFw0D5Dk8t9bCwc+aO7CHy+0ijyx6h4LtW8ArZZe9NtbhY1ls59E/+AHsFg/JoO+SzrKBY5vqcjLCz34FXl/CI6RTmpPDUnSC2IZdjSTJIu8/sfPjFyHO3rx9NFa/J8D1WJ5rqoR58mo/izBHdm99mERXPWFy5ft9CLNJGkDD7qGCsPkqfaaf4+Onh+Ipcf824gMT3xm5OJ+v+NdffikvVcsp7v70UseoxwsyVoHQp8C3Nw/SDaet33nBgdZ7ynKxv+9dj5+fdNV+N7K23DdnO8hK/XHwkbSxi4hCTXewXA6rfSCW6S10GF4pG2cVOLYGjsUg7ZDYrEPnaMPwjuEEwn4zMjlD1iKnOk2ewVVQ4FjXWZxbjl0MdG4e242/nVZMf7H1YW4b14O7izMwtrcYsxOXgu97i6kJD2C9OR/hkH/INlLmdKRLoxwiGDohLQWOthsp8jGinzPcCJENLk4V57tMpEfHyIwUfe2GGEcE9Oam6QTwdqb89NRlJQwzpFQRWlEQDMh7hro4++EVrNM2uMCD7ywWPeTBAldjhin3FiHTtG5XaOFZho+s5SbOjKWz5LRbBnyGPFsQL/X1IkGIpQbnGt1N0mQJ66Z79XpHCy4e+nfPzkn+hLleV7cIb5l0WxkJ0wcc5KDwwDcidzV8xM6h0tlcaghNqYImSnfF55gKNDT9xv09r8sbCw31NHcKX4bXWuetIW2qdNJXS+kfRnSlshA9A8I0t9XFNwZzcl+pWn60SU7QUvemY1I5+mY5UEYnNqcGa8R8anpoIvsvF+eqMdJY5+Qim7MJUn1ZVKDi1L1fsXUokQ6zAjZPfX04t121mURHhgZ6ReBz2hOm5kGBqx7Yep/jbzCRlrztJUlZ7L+IRF81WoWiSU2Zg5UqgTpF5GDiFKLnFbDeVfpsq4Zli5NFit+e7YJH5M6CxZMrP86fRF/a+sRZHWD+xhvIVW4mMgt72+cCrHq2fSCb/R6qSzRBmwHyZN7heyk4NtqH75AEus12ER6jUeyc1Q/XruSrp0vbYlsRBS5eNjX0vQkrM3xHgnDSYPcof1CVSM+au4K2MBvIWn4n6cb8WbNJTGSSI6yjCSRiZoxpq9xKkRHJ9GLvgYJ2lXSFheczj6YB95Bt+lFMvCrpa3+ge01jqF1m56D1XZkXKA0Ie46xNE1RTLhDMBnphZ9QRerFtkLDeZB0Q3jBqcuc/iCO7f7yU5jg3uqPkce1PFXkna/P9csUqY5y1VuYBbq4/FVsrOuC2o8I/cP6khFqknCnCFSeUIBnC06NFxHKrNVEIRtIZUqXto7MTic0D+4EybLm1LGqXf4ITZmNqnDB0nlLpfUcuQjInPoOSt0V2MHfn2qUZBJDraJOLNhKUmcFZnJKDLECzVqkA2yuEjHdJI3eLzLTJ6mSUTbh53e0o5Tpv9pSQG+VDwLaXS+YOEY6RDdQab+V0kVent1rqzUPKHKNDELhMEfG5Mn7WUpZ6PjOfpfJxIBbfbjdI4eIqR3DI5TeFKSvook3ZcizmifDBFJLgZHy/9c14ZXz7WMIxiDh+cnkZSbQ9KHs1PloYO2ARuMJKXY65xoOBqnSXPY4cEFucLOmx64wEgzket19Fn+3ziCuaAiUqQSsQrof09+1mUMibwwzs/iNB4+11gwsTibgo34mBlia7kRseRidJH0eae+A2/UtIraEKHAAvI42TPcUJBJHqiWSCrtmBacQgX29v8Bff1/8kGwwBFDTgOHHZJ0/038zZJwJiGiycVgFcl20876dhwmFTe2i8hfcAT++lmp2DAnE+VkwE93rOJ4OEnFtZP02oH+gffJDjstbQ8cbFPFaVYSsW4nI/5GqTcgouPdEyLiycVgb5FHBTHJeBR2jYmNff/6HDknbHGqHisyDLhldjrmGXTjhpiFEpzvNWCrxAB5fVbbCQw5msiG8vZQfYHDGrHqQiJWGRKJWNrYxVM6ApGMGUEuNzihr4rU42mjGdW9/WJkdQ95kD0T9BOmkh02OzEec5PihfG/JC0pJBF+/zBCUqxL6lS+INJ1Rka6hfHPj9t52ULqOJYkFC2IFaN8YsgbjFXPgVazEHGxZbSNSyrNPGklx4wilxtspHPHc5PZKiQYhyjkYEOfI/qcIv1Z1+bi4f2cezUy0klSzJW9ymGLqCgNtUsj/o+OTidisSfJxv7Msqsmw4wkl4KZgZktdxVENBRyKQgbFLUYZrB9yEPWjLIQyqIU7jaa3A5kr3PY0U5/DQmbjKvg8FjGmQSFXGEGl3L6S0OHqEfBYOfi+fKrJnUy2AngKs8D1kr62wJN7CJR6ytW7ek6mglQ1GKYwZKLRze9R+TihUk21dfM/YvcncQd2TzaqKfvvzA0VCPtnTlQyBWBEKOLLg/S4urAvgwbLcH1THyWUMgVgWAbi1UhD5rlv+M0S+EamT2zEBS5OOGOc6N44ai5PBed864GaJsjAk05VlF99uHRtnN1m7H1UrkMuWu7tMEPDNPv3efk4K480zUYuFJsvoZk/VeQon8QaYbvQBNTIu0NDNz1xCOTPEufsOmuBIIy6F88fRH2EdcDXJJuQGlqouhgvjRgEwVuu612JGtjoY9Vi3SYnAStKCUZTKScCcHJgZxbz908diIunyY2OlrkZHHCIEfj/QGn8XzQ1EUEcEX0OUmwyJAgRn8brUMwDztEGSVO41lE98T1Vn2Bc/A5dZrvmRceC8mIjlKJ++Zz5Om00FMbf3WyQdR4de2PQv1Xbg55/Qs5eOoXx0gPLZfI42ymxVN6gHsEuDwTOwdqloxhzGoNilwLX60QWZ6MTXOzcW12Mo50mLC3tVu8JCYEg7thlqQniRx1zo3nBx5IxidLxRoyhj+hc3/c3CUGzjKJmaT8AhemJGJZpgHrZmeI6Vg4g3UycA2ub+2tEhVtGF9bPFucg7dzUiGPPrKS5Pp22VxsWZgniDERmOxcNfpDahPfs/t8bnAaDyc03kbt4ulh9rX24NVzrq4ff8k1QuQYEYNhnUSIGBGKUI2pGTERuOogzyk0YN1HzsDHGBq+IO3xgDvDOaM1Mf5mJGivR0xMePLEpk2u3MQ4mOmF8+hoX6qEO4zX0kPm6oArswx+EYxfIGdAvHy2SQwH8wUuKFKaloRvlM4WRXgn65weS678xHihyuQ1KnhU0hMri/Gl4hxpizdYrX7UbMRLZ5rEKKLJwARiycqjmnh0uXubP+QyD+yA1XaMCGYVKTecMBgbM3mhE84jGxj8qxjcYbUfl7b6hioqAXrdF0n1fk0kMoYa0zboW/qtgmhMLFZTLEFYpXBqC3ca88vnARWsjl480yi++InqysvBKTafdvTiF8frRokVQ6ThKoN8bi6rxFKQU2f4XCe6TPje387Sb7undPPlaCJV5iYWl8Tkc3KhuTn6iYdpsS3FI5B+XdUwSqxYlUqUHOfSmlz3ayVJUn4GfO8swdtJFbuJFQh4kgPz4LtEsj+7Cp9MUY+LywlYSFIZ+54bJRZLPE6L5jGNXGeVy5JzLXuu+8XgPH3zwE465hk6v2dsZKgQ1ACNZ081eI3A4a+Qx/7x8PevLsoX/68iVcl57Uw8XvhBXzRbiWwqzCfiJdPDnwhMDs7dckss/r7ZXlueYcD983PwlYX5uIUkFOdo8YBaPre7ttYpY79IBoxXq4VdNhY84GP3xU6SVh63niUdlxy/dXY6HpifK9o+l8jB5ZvkYMP/OKnOl842j44AZ5tseWYyHirJFYNq/5HULB/PYzB5XzvZb24J7war9MfKCsX/k4HHLdqHz5P9ZCeCpEEnkgYnlqYMHiTCmbA2+zGxziWd4jRXkcS7CykGdg4eQWLCBlHCSaVKhMPRQffEpZgcGB5uof9HiHyr6LmFLoAQEnItILvlh6sWiMEOBUQyrgHPKoczPzmvqqnfJlKWWWD1kDE9m15mCR0z0QPmspUs5X5LL5EJybnxt5Pt8sNrF4iS33zuLJJgXJ2Zzy9I1W0Wv+2jF8mjh1aQ6p3o3GPJxR9FGZH221cX4kFS2YtJKrJaHEssBpPk3cZOvFVzia7lGgbH7fnnZUXCpnQPEOFjWZItpfOyM8OqWK52w0EuHmHEtfBZypFypHPHg8thZiT/s0g65ON5lBKn+LD6c1UrNIhsWZZel+EgydUOXfwtZNv5X891KkybpvyQv0MPazmpg4nsHS7xzaTLSXDVrrpEXl8NGc5su0yES/S1sxph0vDjZ1W1cW4WifIoQQ73wp4a03tDQZZQlwyWLq8SKbnLxR/wy/8qGe7lJAk5wXAy1FKbWWIN0RfCd8lTwmwlO4/V4URgycX3/uiSOROSNZTgQbRMFFfGaxS0msUkqR4gKTVx+II9RH3CevrNFqE6WV9wmKJ/cJfrByHCtO+av3z2CLWTGNK30Ze9kKSCG+zuyzty5Wgnt567SxhMKC5nyV0mPyf7a+zCNtlr5IXJR/50kIRkO3AKs06AQxEsQf3JUO0YHBI2GiORpNQyuu+VpBInAxNsw5wsIanDCYejHe56EipVnEiP5lTpycADa0XNCfVsse4kYg5Y/yb+DhWmTa4FHAKYYt4cVmUcOnCjm6SOiby0icBqkYeFMdhYrzcPirl7fC2vX2gdNykCx7PGBkcnwkJyDFgN+gOO3bHEZKQSuQpIovqDWPpAlqSHd4Q0hyy4g5uhjs4k1VdEEmnq2J8gomaptEZ269BZ6e/QILzyOgjwRANdJCUYbBOxVGLPK5CFPctQw0Zq2h1553gaOxn+gKVvqjawUgHTAQ/y8H9KY5UgWLgQceTSkBR0R8bZSOZ6Wf+zrCigZTZJFXqnIQWHKtxGu21khAx8/zqSuYgwB5bDiSjxGl2vkoOvDhGRn1pys4foqQrN0zdPfyIJOSKOXPwCubuIEU0EYa+QXX2eAs/fhY+fyhsLFDzOkT1fBocYTnaZp3QcWDVzff3KS+GtDMgenrucOI86YgPfNYLbN5hYI/TbAetfxXoU1GSneRe0my4ijlzcbcKSh8Gjejho2UQGui9wCMJf73A6mKOPEzYaU5bjakfJo+WQia+AMG/tJqfltfOtfs/MESy4r5BrUjBFuF/RajsJy+BfJe9xPC5f5gG8naLoCZORoVJpkRB3g/g7VIg4cnHBW+4qctfKukCeI5dO4jiTvJICk4qzL7grh0sjcTfO2GIjoQQHiVdmpYzaWjUmC94gZ4IL1TG53Rzj3jQuWGck4/+9xg5yOrwnQwgHeKi/VlMqQgwMjo/xTLM8c+2Ikw1998fHBeqGaFsH+gf3oK//LbGV06d5dltd/PViPVSIOHJx3KwsPUkEKNmgZ1LxTBbf2X9avFCOj3FaC5ed5P69O9/5FP928Bw2v3cU+1oD6/4JBNzVVJamJ+KnQU3tYonFndb/9PEpvFrdLNrGKrCDpO2hjl785Ggt/teB6mmn3/gDHlyri79ZzJbGwVKGbegU2rufgNH0UwxyHyXZYpwd0T/4PtqM/xudPU/SB8H2Flls5AAkJ24mTzNLHBsqRBy5GJyp8EhJvuiGYQHGaui9xk5s2PEJ7t19BJt3H8XN2w/gqSM14uWxFGOycS17+jNs4G4drozDBeOYYAyuwPPDQxfwBWrPktf+iuWv78V9u46IyRIY/KupOqlDAa42qE9YJ9lNLoeIVR/Xq29qvx81zStR13IDLnV9W0g0F0hmEbEMiffR8g/SttAhIsnFnd2sGn9wzXwxaprX+f1wOICr3fDk6m7wPn1sDB6Yn4OXby4LuZc4FiuzkkWXD3dwc/DV1/V4M+/n3oMFZKtdCXCh33TDd0mK3SDiXL6r4vDzVJMqzCCJ9QAd8x1pe2gRFLn4oXE2AC8cx3GZr5ODv173MRyHmmpoFZOGI+i/urEUm+fnIoW8NVZNvJ0XbgOT6ub8DDx7Uyl+uKpkytgTmbuiK8bT9sBvn21BnlLvFzfQNa9dIDrQuS28Xd427lrasjAfv799GW4iVeq+Ziy7wH6BiHE5htrMNSU4BOLfcXHapchKfRKZKU9AG3s1kV9Lx/M5uDOfzkek4/mE9Al3IDf9eaQZvi0dGXoElc/FU6u4DdjMBI3oN5yqWC2XBnfHe9it5y9aHrWfCtz5ywmJ3MfnpIsvzTSIkAPnSvkLVqG1ZBuxBGRwNgTXQmVCBAs25nkS0moy7Ll2hStTwiAkLv/NKpun+uPwhQuXsTKTJ4uSVn1gyHGR7CQOYbDNpoVGVGz2dKH5A1dGaids9tNk5NfSx5To6rQm4/1KVChUxi0qCBsi0uZS8PmAQi4FYYNCLgVhg0IuBWGDQi4FYYNCLgVhg0IuBWGDQi4FYYNCLgVhg0IuBWGDQi4FYYNCLgVhg0IuBWGDQi4FYYNCLgVhg0IuBWGDQi4FYYNCLgVhg0IuBWGDQi4FYYNCLgVhg0IuBWHD5EPLBlqxY289KscUmUmfVYjHrsmBJhhqOu1oOnES/9lgh1ftF40eD99YisU6he+fF0xOLnM9ntpRi2fG1jmLNeDtO5ZjmSEIIgw047fvVOP73pNOANEJeGPjNVid7P9AWQWRjeDExJAZHzWbpJVA4IS5tQO7xxJLwecSQeogJ3bXd6DLv8qNHoyYUVVrQqW0quDzjaANnJoeI44YA6yY19uJis7wFWhTEFkI3np2WvFuQw/sfnPFgSaSdtvDXwtNQYQgeHIRdjS1oclf4WXrQuVFK1wVOBX8PSBAcqmwTH7EgAkVrf5Z5/a2NlTI5yKIVWOx9KcCBqkA2wDM3UY0tdBH29EDs8UK+wyW9IGFImIS8GSmA99v8YirZblFePXmQugnm0TDOYDTFZ/i9ovuCZZU2FpkQEd9D3a41apfoQjyNmtP4Jt7jaigtcUZc/Dq7fOQPvEEaAQHuo59io3HB9DEq3SNF9ctx7rMSSYdsDTihbcv4Ec2+jsmEW/cRW3S+/oGA23PeNhNrThyuhWv15uww4eDlB6rwabsNKxfNAfLsqXp+kb6UbnnU9zX5p9dUl5QghdvzBOxSXvLSXx3Twd2SPvkyKePfmkCTwwWh3k5OSifnzn5u50EAUuu/DkpuF921NGODlSZvad9GwdzByraZL/R6lGerUHAczeMDKCmrke8SMZpYweO9ExxbTno+G2H6tEUyJwDk7276bSHyFFz6CAeeusM7jvvm1iMriE7XrjYim3VXTD7beMGh6YhB3b0DuCZJiO+efAkNr59EqctwV00QHIBmtQMlMvnUxruR0Wj99w73iDpcbEDf5a90PLsDMxLCPjSgKkNuzpkN8pORX2Xd6R/CpzubMUrZ4zS2jQRbHuGe1D54WHcVEXSR9rEKI6Lw9acFDxZlIYn8w34Vloc1o1OTUTSax5JER+PTU/S7S5DHO73sSzX+5rjSIVyves3dyWMN1Vqejvwo8p6mINQz4G/YbUBywsSUCytMrY3kI3gSxoMm3Ckgb5SaZUf0roi3w/JN8jbvNiF3WO+8B0X6dq+50CYAE68cLoGld1+Shif7QyyPUTAmsNn8M0Wz/WLDSn43c0r8d6X1+CJ25fjkRuW4pFbVuLxjWvw4oM3o+6LRXixbDbKM33L+k2LSvGre9bgaR/Lt5ZnTtxdF5eCx9evFr/51ZfL8d4Wut5GUqE5HvOk8lIbKo0BaAgJgZNLFYP0/EzZF0Viu9eIY50Tf6/2TjLke6UVQjo9yNVZQUxmZOvGsQbJduKvzX194VT0Syt+YqgfT31aH3gQWI4g22O/VItt5z1e87r8Qrx5x3KUzzb46KtVQZNZiHVL50AfgC0XPOh6aXlYd30xnnC/JqcdVV2uWdECQeDkYugz8YUsueFtx7t1xvExL/pKm8hof122fUNBNhmN0koAsHe0412px0mvT8fWkkRJejqwq7bDL7FdHKcelbhH25rw+nnfE7NPhaDaQ45NzbmuUScmPzkbj19fRAa7az2iEJeIxaN9x050DYxJNPADwZGLvK7iQgPKpVXG7tY21AyOYdcgeVHNsiaR97WOvtCAwS+lphu7pdVNBVlYTqr1bumlHO3sQpVparG9KH8OnhgV9048dbIWlb2Bi/ug2zPYhcpO93YV7pqXR4SXViMNTifsw573ybPJBTqxX3DkosP0s0g1ymv3W8fGvLiTmlSizP5YlpmJUkMQWQ9ybzMmgdzqVGhIeq7Ols5FTsXuBj860lVxWL0iH99ySwqbCc8caQrcWA2yPXZTH6rcz4OOW50T3kk+pwWzEZWjE5+pUZQa+FcQJLkIcWlYnR8Hz+Nx4qM6mTrgTuo6s8wbUmP93GBiJt7e5rKMTCxngqoSsHiuR3puZ0OaY1OTQMjQ5Dn4ytWJcE/+VtnUiNdrA7HZgm0PSYJ+O0anmVJrkBQ7/vHbTR2oudg68dLa4zOo+tvjR5D70vsTLy/vx+4OPyW0tQc1p0/iqQ8a8YJkkxanZaM8R4qvBYDgyUVCMrMwBRtkZzja2YEjbjXT3Ybd8k5qHT34IBqIIbm3SQQt9BBUk52NdRK7zSZy7zv8cBtVaqQvmI/HMt0Nd+BHx8/jtK8A0tjN02iP3TEyardoYmImMNDt6Kg+h5s+PDPxsrceNTYf7QwWViNu/+OHHiL+4Qhu+rQDz0hKSK9LwU/XFgdlJ0+DXPSAUuhhpshOMTKAisZuMuztaGow4l3ZV3ZXPhnyQdgX7G2+654LM4YIPWLyfMltdhgS3WrWjt0sOf159jHksa7Mx1b3yx3owbZj/qnH6bRHI5PadrZpQsiTSeNcaQnICJQc0Ro8vnge9t69HMuCTOCcFrkQY0DpXFIH0ipj+8VONPWRvm6SdVKTrbOhMD1gg1B4m3U9nm6K4QF880C150uuuICvt3rEfUVrJ2r8DGFrMgrx8GJP23fXXcT2xgn6SeVPaFrtoRPFxiBJWoNjmCTZ2LZGk5OWgEdkxLjLz2DzpHGuO5ZOQhBPEPV+vSyIOjICTXLqtDzZ6ZGLDueY13pZA8ymLuw+04rdsqB9cRrZJSlBsH+QDGdZP+aUGDJjl98ZsmrkLyb1mOZ+BHY8dawWp5lf8nl55O9/mu3R68nLdl/OZkVt39hAG6nsxcvxpIwYP1uTibukvWGBLIj69D2r8Mv5bjuazYWaoLt+GNMkF0GXiXK3lyTgwFPnyXOU1vgS6+ZmBNSZ6wJ5m02d2OU2irUJeGJeJp6eP355MtN9fadQRX4HR2PTUL4yG49I6spMXuC2U32jdpE3QtAevQGLRj1s7iqaIDb4WYI0TPHVeXjMbb5YjHj+VFvQbZw+uchLKiYvaZ20Og5aA76QH4TLzd1G5G0elVYfKZmPrWuW4P7rxy+PXJuLrRJBmnpJJfvoLZgImuwi/OPCBORL67ubOvCU3A53P6FQtEdLtl6ux8PeXdeIiq4AJOGVgC4Xm64yjHrTOy7Uo6IjuDZOn1wE9pLKffBnXU4mFscHfhl7D3mbRumT4eBrwSTB1+QMlGdI1xCdx4FIBA3yryrC4/LO+AkQmvbQtRaQpHSbEeQAff2jk6ho88PLvWIg1TyvEN9wmwsjVmw7ElxXWUjIJb5IcgXTpVUPNCgvSgt8fCN7m3VGbJfepQi+krHpE9F6ciz0WC2t7m6eoLdgMmgzsY7UozyVyAuhbA/H2coMo/s4+PzQroP40d5qHL1IKtRkhX3YAbupB00t5IF2WjFZzokbJrMRp91e6wRLU28ABGZzoYxsPel5cCbJy0F0lYWGXPxFFqRhg8zVZqQnp2F1RhDxB2sneZvuvix/gq8q6HNIerovxb0Fzf5lyLqhmUXqkYzZcR8IcyKk7SHJsLAUTy9N9BCM7NQXapux8cOTKHtrP+b+rgJz3zqC6/acwe3H5Parb+wgFXu722udYPn+8cDsO00OSa/ZHtvxmVP1OGoK4ASEEJGLkJyNdaOelwubguqk5m4j2djGBD+Dr/H0teW5gx1O7KprC0yUszFbVojHx2o7VRjaQ9fKL7sGL96SR9fz/xWsJm9THxO6VzYpohOwuEzWVWbtwfMnXJPC+4vJ05yHjDhK3sIFKSocp6Wv7apCH7EPJ+ytZPxdHAATPC4mDosWFaHY1/B8SxsqzxjRJHWOxsUmYGlpIfLjnOiqq0FlxxD5UypkZuSQak0Rv5kSvc2oONeDjhF3W+dA31WP3dQmca6cOSifPflUvvYOuoe6ftc9xPI5yNRvDVV7Jnp2DiJvEyprjTjSa/cK5OrjNMgjQuWn6FE0KwP5BlmkkFX1+Voc63XAOpVAUXG786jd0pdjbkVFNbWLnn1cQhJWL57jw5unttG7qOB75+dB93DX8kJp39RQpiFWEDZcIRmr4O8RCrkUhA0KuRSEDQq5FIQNCrkUhA0KuRSEDQq5FIQNCrkUhA0KuRSEDQq5FIQNCrkUhA0KuRSEDQq5FIQNCrkUhA0KuRSEDQq5FIQNCrkUhA1/55moNjTsfgG/OzTJKG19Ke7dsgklQQy9/HuHIrkUhA2K5HJLrpQybN5yJ4rjpV0Kpg1FcikIGyJDcjktaDh0ANXdNniqCqmh1mVj6aoyZGlp1WZE9ZFDqGpoQ78zDum5JVi6ohS57pHPthYcrzyFNqlQiDoxGekZeSguyoXO5+Bo/yWXo7MK+442IyZvJVYtTqPWSaDrHq48C1vWIuTbz+NMm0V2D26ooU0txsoCG46daIbF4SmzpFZpkTyfzplrmbz98vtT0fmS0pGdX4ziXJ1oi7t9YhSg2J+M7Fzan29w7W8/jorDbUgsXYtVc1zVUCwtVTh+vAoXjA4kpuWioHgeSoqy4Kg9iAN1/XQfsnaqk1GwYhVK0nw+zHHw/5fhhIPIdfIgDrdL627EFyO7rAyG9v14808VaBikbfQydFoHWhprcPzQIay65wHcOo8e1mAbqg4dRsOYevjaOeV44L41yGWCTgabCc0XquHw+h29pJQ8FGRoidvVOHyoGrYTbYDhAayRTuiwtKH60EF0zc9AtOUwDje4y+CMAb2UggST6xzSJjfSYhdiRcoU7fdxf7p5t+KBe1ZB526ftN0FNbKuvRcP3FIM9NDzOlaDtNSVWJGvRvPHr+HNv7XQ7+ke6YNqaWpA9QUjtF+/E7q6Yzh8ZKyTo4Nj7ooZSC43DJL0kBfyHWzArneJWENpKN2wEbde7fqSLbUVeONP+3Hw3feRnbEJpdLPtfPuxNZ7SqE2NaPq4+14/9wBHLhAHt9VU1SRpuvsf7tBWvFAd9W9eHRjibRGGGrBvg8Oo+ABeuHyAa5RCVj6D9/DdWxoDLVj/ysvocJSgnu/Tp6mdD+Ws2/Sv2rk3rIVD18nk36MHiItwWf7c8VuaX8J1D20f+9OsX8f7V8vDBzp3Mt1sLRXY987O4lQ+1BVVjD6fAQsDTh+qgWOjBXY/OB68bwdphY02wzII69Y1G1VpWHVw1txKxExWES8zWVpqkK1kV7ywnLcutSj4nRF16F8aRpgrkFV/ZivTK2GLoMeaEketHCg30zqVtrlG3RMShrS0uRLFrJTE2VPSQ1DBn3BTfuw5xC9HGlryDFV+9UkvbOKpf029JtIFUu7BGK1MOSXoIRUIhy0f3BsSx0u1U3niZM+ELWB1GKWS8WGCpFFriFSTbXVqD7nWmpautHX2UaPT4vsgmx4VwbgbXkkrG3oauv1Vgf0QE2Nx8kGaYBNpUN2lsvumBQppbhzy6N49FH5shWb1+bSldxQI31JOVZkkFrevwcHLwVDLweM1RXYRVJlJy27du+nj2fMefxp/xDZoOfJxqLWJaeMIQU9x5ZTB3Cwlj66eLLNDGNsAh0RdwF9mJf246Wfv4Cd9KFYxt4K28GVu0Qbd76zC7s+Oo52HxrfFyKLXEI1vYk335CWPefQa6WvjB6dVjueHmqtDlq6A4fN4wjYLuzEtv/4Cba9shOHO3UouelOrC2cyuAKAPEFWPuFFUhztODAnoNoH2MD+QMbqcDmpmaxNNBilEmWqdpvq6/AK89tw89+9ix2nbWQTbYSKwvddgSR/oNn8eP/2IaX/rwfzepirNlwK0rGFVeh8657GJtvKobB0Y7ju1/Cz55+FjtPGGUSkAje3iC1swENl7rQH+C3FFnkohe3ZuO9uPc+abltAdKTEolaNlgmUG02i0l4R1qdVpBMQE9f5dXkRfLzJg+neAFJtxDfpa5oLcqvNsDWdAB7jndBVL7y+xpkF61+AFvd0nHrZqzJl5F/qvaTJMojL7FkeTnuvG8Ltt7v7axoyYsuW1wALp6j1uVhYaEPqU0EK1i7GY/9y2N4aB155Gojkextcqqkp6xKQ9k9Min+4K3etrAfCPFjnyZiyaAsIlthgWspzk1Fam4BOVoOtJ1vgNeMJyS2m2vIrSfFmJ6dPPoAtVmlKL9jE+5bVwqdpQYVe6tFxZqQgr/8G25FqcGGliOHg5JevjBV+8X+Deux/pY1KFuQC4NX1Rw10krKsf7ue3HnyjRB/govaTQB6JkXrFyPjatyoSZ12tYTujKakUWuCaCmh7myiCyr+vfxxttkn7SYYOqsweE9b5AYN9H+Mlw3b7wnqJtXjrXztOShVZA35ceMWz1V2PnSs3j2We/lhdekEMhY6EtQfhMRQFqF3wR2wNZVgxrJrqw+V4OWCSYADbj9cqi0KFhVLshfs78CVWPO7zDR8/vkOKrrW2AilWzrrMahqnY4iGjZKVKZJiepxSaP/Vt9oYHUt2uXv4h4cvH8jmUbNqGcCGY8XYE3X9qGbc/9AbvICFXnr8KmL62dOIbFx91wHXLVJhz/eN/EBPGCA5YeI4xG76W9k1Svj0/fQB5s+cIAdQXBeOJ9j135xh/w9lF6sdK+UYxtf6BlU/XFWLumGFpLNfaR9BuQh8oH23Hso51489WXsO3pH+Mnz23H8R4DSm/biBWjs9FZUP3Rdk87X9+OAy2BWfQR0rfogKmlAV2OZLIn0jz20xjYjA2oqW1Bl1OHvMJib9fZYUF7YxusumzkjW4nwlxqQJtFjWRWrxNE3/mczUbfoQq1lm0capPNiIaWfsTNykOWPOQ/yNt7iWmuYKsLPu5H/LbLFUUfhRqJGQXI1dsmb39WOhzkOXvvl0FqRwyfyz15Fz+Tpjb0I5EkEtDV2e/ar4doX5vZAlMPt70AxUWe5zPhMyFpmO7jGfrC33nHtYJwIvLVooIZC4VcCsIE4P8DgBAa+NPn+SkAAAAASUVORK5CYII=;" parent="1" vertex="1">
          <mxGeometry x="622.06" y="10" width="77.94" height="80" as="geometry" />
        </mxCell>
        <mxCell id="wDzOlx1E3NnTIssNEkOt-16" value="AVD (V2, ARM managed)" style="image;aspect=fixed;html=1;points=[];align=right;fontSize=12;image=img/lib/azure2/other/Windows_Virtual_Desktop.svg;labelPosition=left;verticalLabelPosition=middle;verticalAlign=middle;" parent="1" vertex="1">
          <mxGeometry x="1622.5" y="140" width="68" height="68" as="geometry" />
        </mxCell>
        <mxCell id="wDzOlx1E3NnTIssNEkOt-17" value="WVD (V1, non ARM)" style="shape=image;verticalLabelPosition=middle;labelBackgroundColor=default;verticalAlign=middle;aspect=fixed;imageAspect=0;image=data:image/png,iVBORw0KGgoAAAANSUhEUgAAAKcAAACMCAYAAAAZfbkZAAAAAXNSR0IArs4c6QAAAARnQU1BAACxjwv8YQUAAAAJcEhZcwAADsMAAA7DAcdvqGQAAABhaVRYdFNuaXBNZXRhZGF0YQAAAAAAeyJjbGlwUG9pbnRzIjpbeyJ4IjowLCJ5IjowfSx7IngiOjE2NywieSI6MH0seyJ4IjoxNjcsInkiOjE0MH0seyJ4IjowLCJ5IjoxNDB9XX23WbNLAAAYR0lEQVR4Xu2dB3iUVbrH3/TeQ3pIIFSRIkUQUZpYEOTSi6AottUV2z6uuldXr7quuuLu3WsDUXrvgiKiFEGlhF4CSEky6b2QZFLv+X+Z3AvJ1zLzZeaEnJ9PnuSbRJKZ7z/vedt5j1MdgwQCDnG2fBYIuEOIU8AtQpwCbhHiFHCLEKeAW4Q4BdwixCngFiFOAbcIcQq4RYhTwC2a5cs/bM6kJYn5VFYlqpw3Ivd386VPxkVRXKCb5RF+0LScn/+WJ4R5A7MtqZRWHiu0XPGFpjg9XJ0sXwluVLJKayxf8YWmOIU0b3xcOI08REAk4BYhTgG3CHEKuEWIU8AtQpwCbtFMwnu9foYqqvXlOb3cnCnIS+jdkTix/0ora6moQn966KU7QugfoyMsV/xgmDh7R3nRy3cEU9d2HtJ1rcjbOwQXJyJTUTUtOFRAW5NKLI+qc0OLExZzx5x4GhLnZXlE4GhSC6vo7oXJlJRrtjyiDK/iNGQNjvRzo35RnpYrAQ/EBrpRl3bulqvWiSHidGX/So3Y/i4wGEPECVkKbfJHa78lIrQWcIsQp4BbhDgF3CLEKeAWIU4BtwhxCrhFiFPALUKcAm4R4hRwixCngFuEOAXcIsR5A6O334HXvgghzhuZVj50QIjzBmZAtHbztxMT8C2c9uIa0gnfOdSDEv/Ykfw8hNZ5oriilv62O4e2ny+Vts1ca0hr2W13cyGa2TeY5t4WRK7O/JlZIc42gtxdhtXkGaGmNgKE2PiDd4Q4BdwixCngFiFOAbcIcQq4RUTrrZCs0mrpI724mnKuVlM2+9rM7lFRRS1V19ZJuy7dnJ2k+4HJ1GG+rhTq7ULRAW4Uwb7GNYeZoyYIcbYCIMSj6RWUaCqnRPY5vbiKcstqKKukWpqLpAdMZQn3daF2Pq4U6edCfaK8qF+0l5SAj2Wi5REhTk4pNtfSd+dKaMPpEjqSVk55TIwF5cbObvdn9yuUibV3pCeNu8lPOlkj1NvV8l3HI8TJEVU1dXQqy0wrjxfRlrMldDm/kirZY/bAzcWJov1d6b6ufjTzlgDqxyyrow+rEOLkAAjwEFuyFycWMGEW616qWwqUMif19KenBgbRrTFekkvgCIQ4HcxvKeX0xcF8Wn2imMqrHCvKxrgzazqhhx89c1swDYn3sTxqP4SaHASi7Dd/zKEJy1JoUWIhd8IEsOir2Jtm/LJUen5rJqUVV1u+Yx+E5XQAW5k/+cbObCkCtxYXtvQGe7lQFPMTu4S4S699gLczuTs7S3Xziqo6KmFBVYm5hi7mV1FqURXls6AKqSZr6RHuQa+PDKOpbMm3B0KcdgSv4z9+zqW/786lq830K72Z34eZm/1jPGloB2+6OdyT2rNrPw8X8mDLL/KW+HCydHTgrqItDlqEBYQfm1xQSWezK2nv5at0OK2cLhdUNfvvQJA0ly3zf70rjHzcW/Z+C3HaCViul7Zm0NpT+kZhA/h8nUI8aESCN43v4U8DY70ME0QZcyOOZ1TQBvb37LhQShfyKpvlWtzX1Zc+vj/i/8astwRCnHbgZFYFPbougw6byiyPqIO0zvCOPjS1lz+N7e5P7XxcLN9pGZBDRU516dEi+vlKmW6R3hTmSQsmRtLg9t6WR4xFiLOF2Z9cxoSZRudzKy2PqAOLNKd/EN3bxbfFl83GQJQ/XrxKXx0upI2ni9gj2nnO9kFuNH98FN3T2dfyiHEINbUgO3+/StNWmnQIs47icJMnRNPyqTE08WZ/uwsTIJ85ppsfLZnC/o5pMbpmyqcwv3XmahOtP1VsecQ4hDhbiN9Sy+gRZjFNzNdUA0HMzD6BtOvxeHp8QCAFsQjc0fiyN8aM3oH002Px9PQg7f1FuVdraM76NPqevRmNRIizBTiTY6ZH15s0hRnKfMmPx0TS4ikx1CGIv5Mvov3d6JNxUfT5+Eipm0kNdEQ9tj6DfkkptzxiO0KcBpNZUk2z16TT2Sx1YXYJdafV02Np7uBg7tvX4ANvnBVLfTW2GpsKzTRnbYoU+RuBEKeBoKfy2S0ZdEgjKu8f7UnrZ8bSiAT7lwStZRCLyNfMiJVyrGok5VbT3C1ZkiW1FSFOA/nn/jxapxEY3B7vTavZTUYSvbWREOxGK5m1H91FPTLffr6I5u3Ls/mISSFOg0AiG5UfNdDYu2hSNHUMbr0nq0X6udLXk6NpmKoFdWKvRTZtTSq1XFuHEKcBIIn9zk/ZVKhyUm9CiDstnBhNndhnHvn5ylXdJw1jm8cC9lz6RCkLFCXTV77PohwWyVuLEKcBLDpSRD9fVvYz/TycpEQ1rzOJFh4upPsXpdCzW9N195LiTfblxEgK9VGSkBMLCivo/T05luvmI8RpI6ezzfTBnmx2L5RD7v+6O4Lb4OfrxEJ6YWuG1MG0NLFYEii+1gMO433vnnDydFF+7l8cKKB9ydblP4U4bWTevnzKLlVauupoRp8AemZgkOWaL9BH+tw39cJsYNGhomYJ9OG+QfRQP+XnB0v87k+5Vm03EeK0gaMZZlp1rMBy1ZSOQR70ytBQqZGDN2Axn958vTAbWHy4iOYygar50A3gub15VztVX3rflTKplNtchDht4PPf8qisSt4iODnV0ZODgqlnBH9+5uIjhfQME6Za99EiJlAIWA+I4F8Z1k7Rs4H1XHK0kGqamVsyTJytYWqZkZxizv6mM8q9mbfGeNOc/oGWK37Azs7nv8nUbIu7u7Mf3d/Vz3KlzcN9A2i4Snpp54VS+iVZX8tgA4aJk/cSnNEsP1Yk7QOSA1sonhoUSiHejm/iuJbVJ4ro6U0Zmsv1qM6+9PWkKKnEqhc0h/yZWU88dzmQbtuWVMqsp+UBHRgizpzSaqmm3FbIL6+hPZfKFAf99wr3oCk9je9vtAVYzKc2agsTFnPJ5Ghpb1JzubODj9SHKk8dbT5bQlkKb2g5DBEnnvDrO7Kl2T2IytCc3Jo/sOSp+Ue/pJRJWxyUeHJgsLTnhxdWMWE+sUE7wLm3ix8tnRJNEcyHtAZPVycVV8aJknLMdIC9dnoxpBO+gZgAN8k5bq7jyxv469HTOL1PEP1h4PUvNl6t57al07/3y0fpeP5H5yZQuEaLmb2QhLlROzUEYS5mFjPM1zZXJIOtoGMXpVBiunzr3IN9AmgR+z16ZtAbKs4bjdEsINg2u73lqh68+BOXpdKvChbgiQFB9Nn4KC588I2ni2nO+nTNGUv3sKUYNX9rLWZjXvk+h97fnW25uh4YsKPPJki9rFrws/ZwBsQ1JL5p9JlSWEVnss2Wq+vB/zPhZn8uhLnlTIlkMbWEieDnq4nGCRPc1cmH/BW2maABG5kOPQhxKoD94H1lauEnM82KDRJIRN/MgiFHs5kJc86GNGn7hBoQJpZya4IfNfpHe1DXMJWkfHKZruEOQpwKYDxg97DrhYZg71CaskM/KNabQnwc62tCmLPX6hPmsikxko9sNIGeLqrFh1+ZOPWUR4U4FQhnN63xjcN0jHMs4lSif4yXFLEaBaKBTw8UStt1tcDPIl30MBOmVlQ+7qYASZi2Bj9q9IvxVAx6zuZU6mqlE+JUAEt045o4SpXJBfJ7g/CzjS2trXy0r4Ce25JGs1abaK9KSx6oYepcerSYuRwaeUT2c9h63JLCBL3CvSjAU15ecIsu6thnJMQpSx2zmk1HUWPUtdKktXA/F10RqF7m7S+g17anS74ZMgQzV6fRHhWBwkp9Mi6ChiWg5Kjiz7H325++zaD1p23rUtcC3f5Ix8mBIWMX8w0QpxWdTq0eDMPC/PTGXMwzS9OH5YhmYjZqbMxH+/Lp1W/Tqb78XW+9U4sqacaqVFWBdghyY8t1NI3o5F+/zsviRNmlVfT4+lRa14ICxWuBN6wcZvYaXshVdo8a0BRn11DHR5/2xoWJUy5QUAsykHTHSEJbgPDf3Z1Pr32XQXIN6ajAYboGRtwogdHZiydH0V2d1QVaUF5LT7SgQOHmtA+Qj9hRpFHugf1/NJPw53Ir6atD+WRiLwxuWmsG/jn8nb1XyqRZlUrghV0zPZb+o8f1XTn/2p8nDVGVY1rvAGmUjC05TtywofMvS2U+NbAfaQX7XbfGKu8jTy2qlqL2ny6ic0r5jwr2dqb5E2JpYg/jewFmr02nxUfkK2kPdPenzQ/FWq7k0RTnjcg3SUi3ZDCBygc3GD24aVasNLz/Wt7blUuv7ciyXF3Pw30DpbKcrSSmVUjLt9Z8JT0CTS6sZtG7ifZcUo/24SvPnxBD428yVqBPbUqXtmnIMTLBh3Y+Fm+5kqdNBkRju/nR8ARUf5Tfl54yjRsllcrW1qjBW/2iPaVJIFpzLxHtzmBL/IFU5fEvcYGutGRyDA3tyESnYoNyr1bTExtSaeMZY5d4fw9lN6dY5DmV8ZbykfLLHbwXZ5nv1dQqL49Gliz7REGgMdQ9TL2LHgKdtjJVVaDtmUCXT42m4Z3YKqDig8Kffoz5oEZG8a4q6tLTHNRmxYmR1ErgW6UyVlJt/mi5wnYNa8HBVRCVlkCvWEYQHmHugBIIktAKN6qLepCUX1ZLj60z0dpTxghUzTqiPKxFmxWnGrh9cnuDvN2VzWNFtfYy1Vywz30ZE2hnjY7035kFnbnGRMdUDkCAQBdOjKIRiOJV3BlUl57cYJKieFs7H8tU9sD76hg0LMQpA4yL3B4bL5XSJBLLSjlQW0DzCYa5ao1IPJttlgR6QqUJOjaACXRCJA3poB74FJRX0yNrbPdB1Votvd20/SAhThmw5GPPS2MCPJWXIlSPtGra1oKGkhXMB9US6OkssxQkqQk0PsiNFk2KooHt1dwFp/rSbZ31qwF8SlS25IB/rlTavBYhThmwnKFvszHxwW4Ku0zrKK24yqa5QFoMivWiVTNiNDedQaDTVplUt5EkBLvTqumxdHsH+TQUNuZ9yVwA1OCtpbCilkzF8ukwpOoSQtR9aSDEqUBWSVNxwm+TL1E6SRv81BL7RoBzKJdMidH0QbHEz1qTJh3yqkR8oLvUmXRnx+sbqjH2+4vxUTShh/XCBGgqLjXLL+seLIzvFKJ9jLYQpwIZMuU1HzcXimM3VQ4MDrhYoF0vthWcRYQhrlp50JOZFTRlRSqdYJ+VgEDRBT84vt6Cog9zwQTbLGYDp7IqSWmALBpChDhV0ApdsCQ19jsRrXdU8ftwLro9NvehERpLoxZF5mrNLAKWeAj03q4+9Nn4SEOECfBaKA1uwMkhUf5CnLJAP4iu1Sgoq22yVwjbffvFKvtKB1MqpIaKluR8rpkmLU+VLKMaSL6vezBWmjyiBZp7Ns+Ko2m9AiyP2AZ2DBxX+ftQclWrHjXQJsUJ66Y19QwNInIb2dQOyT+eaabkopYbLoEu/MnLTZoHunZggRtGe98Wq3/soh5LrBe8cZIUNgFizcLx2DivU4s2KU6c+6iWIAZo8j2Z2TTaxJKEpgs5sIx9e7ZYrYxtNXijTF1pUvUhQUfmy62cHiOlnxwFpqGkywSUIMDTVTqwQU+DW5sUJ1rTMkq1LJwTHUsva1KCiwt0o97hyp1A604VUbnB1SIIEyfBqaWHQIJFmAN1LOUtBYKgnRcxqkf+HTogxlPzTKMG2qQ4TzHro+csSvxM44Q2tkOM7Oyj2OgBy/bzFeMOijrGfj+EqeVjYilfhha6aMcJE5zOrqB9V1BZkn+BcPqxklvUmDYnTqR8Fhwq0BVVY4rcIZmOH4zQxmG08jjRp78VGLK0w1KiqUNLmHA1lk+LduhSDvCcVx0rUtz2G+zlTMM66PeD25Q4cbMxAvC78/rPPMfB+fBRrwV7dQa3V17af7hQTHuv2HYOJCwwLCYqPmrEBbmy4CemWcFPSwH3Y/lxnDYsRx2N7hag6K/LwXUnPCLmQyYW+bEoFWNV0HOIQKU5u0Xwo1Xs/8kqqWbiNNPlAu3l/FrQJrfj0TjpBLNr2XauhKauMEl72ZtSR5N6BtJaJhprwJsIwY/aHnkQ6+9Oy5jFvFPjVDV78fTGDPrsYL7l6nowt3MV84cnNSOPyqU4T2Sa6evDBfQtEwCCFyzFesaXtBRvjGhHb40Ks1zVg79n9GIT/XBe/sQ2L1dnWsnEOa67/unAuBNH0uuXcq19RBiItXRKDA1rVH50FDiQddSXlxXHkA+J96JNs+KaNVCXq2U9i0XQr32fRXd8fkk6qg8BCTp9HClMsPZUMWU3GnqKwOipAYGKgVF5dQ19sCdXtrtJCfzsrDXawsRpvjwJE62Cf92ZoyhMrHSzbgls9qRnbsR5yFRO4xYn03u7c3XtL7EnaKSA79mYsd19abBiEOJEvyRfpfmH9A39B/6eztLRMGoJcWxZRlTOizDBpwcKaO8lZT++V6Q3PXBT88uiXIjzIBPmJOa/HWCfeWVJYmETC46ex7+MDFOcCQQ+3JNDP17U17QLUf7n8Hb0t3vD6/spGxHLlnK0uvEkTOxfgkFRqrjhVJFnBgXpzm1ei8PFiaX88fVplCIFKso32dEcZoFZsUyXzd2dfeghtmTJg+EFNfTslkwyNaOs+dKQEPr7fdcLtH2gu7SU8xL8ANy7F7dlWtoL5e5dnTQxGSdtWIPDxbnwUIEUAPFOtwh38pbZ/guj+eIdIdRBOglY3nrALfjjZv3nSoIXBofQu/fUW2UMdsUhAkM5spgo1b66PUv1+JYADxd65+5wq+v2Do/WxyxOoW1J+vOO1gKnHH2EqE64sRvurDMfhS0b3dp50LwxEdQnUrkj6b9/zaPnv8lgEbfyvzu7X6DUyNucm/U/v+ZLXUOjmIXmBXg3L3+bSR/ty7M8Is87o8LoLyPaWa6aj0PFiSc5auEV+knH/ElrQQMtBhUMS/ClAewzksDo9nZhRlDvM8e/oaVlbOZ6ZK2JVp2QTy01MHdIEL1/T6ShczztCfzud3fl0ps75We+NzCmmx+tmBajup1aC4dbzsksEFp3UqmqYD3YjDa2ux9N7x0gnY2jErMYRnJhJT3AVgItN+XpQcH0AfMpjZoSYi8Q9OBInw/25loekSc+0I12zInX3E6ihcPFueVs/ZhorcH6enFnJnFKT396/NYghwQPKFuOX5qquZ8IR578c2wkhXJ2ypsSqJf/iS3l8w8qH0QL/JhRWDIpuskQNGtwuDjx2w+nlbOlvYySsisoh91Uc3UtW0b1mzo8BQQOvaO8pIoMfEMvHfuiW4oVx4ro0fUm9jwsDyhwe5wPfTwmnAbEKNfpeQA185e2ZdD28+ruF3zpD+8Pp7m3hVgesQ2Hi/Na4M/gbERr/iBIES9OMzTdonzCApnntmZqdj+F+brS+/dF0PRe+lvJ7AUqPxvPFNOfv8uSxt6ogdf9zZFh9MZI6wOgxnAlzhsJaPLtH3Po7V05utrzHrwlkF6+M4R6cXIENkqo8/bl0oKD2hUuCPOlIaH04ehwyyPGIMTZgkCU7+/JpbeYSLX2LIEoP1eae3swTekVoDndo6XAMAkc1f2vX/LpUh76SNWtuQtbrV4dGiJZTaUTg61FiNMOfHEgnwUTWbqT8LCe41lA8WCfQJsjXr1AlCuPF9OaE4VSZ5Qe3JkYUWp96Q5jfMzGCHHaiU3Md3uR+aCXNXy3a4H1HJ7gIx1ZOLyjt+EnEcPH33XxKq09WUS7LpVJ0+r0EubjSh+MjrC6NKkHIU47gubhZ7/JoB8uNK/o4MVEmRDsJpUvcR5n/2hv6YAEBICov2utprjDcCvQdI2z8dEnsD+lTOq0OpdT2aTTXwtkGeaNCZfG47QkQpx2BvnCt3Zm01eJhVbndlF1wTiaOGZZOwW5Ued27uTDBIzaf0NpFJE2uvQxBBfW+ve8KkrOr6SkXIyJse73ovz7ELOUb48Kp2A75GeFOB3E9vOlUrC0W+MwAV4YHOdFL7CIvDnbLGxFiNOBwHKuOF5E/2aRsdZ+IUeBDXRPDgimObcGSX6mPRHi5IBLbLldd7KEvjiYL33NA+i4nzMgUMoYoCvLEQhxcgQG0K46UURLE4uYb2gms8rY6pYA/iomH09ngpzdN1CabuLIipsQJ4cgskYb4dqTxbSHRdQYTCu/Bdl2kAnAOZ+3x3vTxB7+0sAItfHi9kSIk3MwIfjXlHJpLE1iWhldZFF3dmm11ZsAEeljFyTmcvaK9JQORMDUN1hM3hDibEUgaZ6UU0mX8irpXJ6ZkrIrKbkAB+tXM2uLc39qpMYZgGZqzMBE3h5ijGVLNNJPPSM8pP1IXUPdJavJM0KcAm5pXa3YgjaFEKeAW4Q4BdwixCngFiFOAbcIcQq4RYhTwC1CnAJOIfpfL6z9GABVxfsAAAAASUVORK5CYII=;labelPosition=right;align=left;" parent="1" vertex="1">
          <mxGeometry x="20" y="134" width="95.43" height="80" as="geometry" />
        </mxCell>
        <mxCell id="wDzOlx1E3NnTIssNEkOt-36" value="&quot;Az-VDI-SAS-Tenant&quot; Tenant" style="image;aspect=fixed;html=1;points=[];align=left;fontSize=12;image=img/lib/azure2/compute/Workspaces.svg;labelPosition=right;verticalLabelPosition=middle;verticalAlign=middle;" parent="1" vertex="1">
          <mxGeometry x="85" y="224" width="65" height="56.00000000000001" as="geometry" />
        </mxCell>
        <mxCell id="wDzOlx1E3NnTIssNEkOt-37" value="AZ-MLM-TST-WVD&lt;br&gt;Hosts: 2&lt;br&gt;Size: E4s_v3" style="image;aspect=fixed;html=1;points=[];align=left;fontSize=12;image=img/lib/azure2/compute/VM_Scale_Sets.svg;labelPosition=right;verticalLabelPosition=middle;verticalAlign=middle;" parent="1" vertex="1">
          <mxGeometry x="130" y="310" width="68" height="68" as="geometry" />
        </mxCell>
        <mxCell id="wDzOlx1E3NnTIssNEkOt-38" value="AZ-PDMS-HF48-Batch&lt;br&gt;Hosts: 1&lt;br&gt;Size: D4_v2_Promo" style="image;aspect=fixed;html=1;points=[];align=left;fontSize=12;image=img/lib/azure2/compute/VM_Scale_Sets.svg;labelPosition=right;verticalLabelPosition=middle;verticalAlign=middle;" parent="1" vertex="1">
          <mxGeometry x="130" y="400" width="68" height="68" as="geometry" />
        </mxCell>
        <mxCell id="wDzOlx1E3NnTIssNEkOt-39" value="AZ-PDMS-HF48-WVD&lt;br&gt;Hosts: 12&lt;br&gt;Size: NV12s_v3" style="image;aspect=fixed;html=1;points=[];align=left;fontSize=12;image=img/lib/azure2/compute/VM_Scale_Sets.svg;labelPosition=right;verticalLabelPosition=middle;verticalAlign=middle;" parent="1" vertex="1">
          <mxGeometry x="130" y="490" width="68" height="68" as="geometry" />
        </mxCell>
        <mxCell id="wDzOlx1E3NnTIssNEkOt-40" value="AZ-PDMS-ME-Batch&lt;br&gt;Hosts: 1&lt;br&gt;Size: A4m_v2" style="image;aspect=fixed;html=1;points=[];align=left;fontSize=12;image=img/lib/azure2/compute/VM_Scale_Sets.svg;labelPosition=right;verticalLabelPosition=middle;verticalAlign=middle;" parent="1" vertex="1">
          <mxGeometry x="130" y="580" width="68" height="68" as="geometry" />
        </mxCell>
        <mxCell id="wDzOlx1E3NnTIssNEkOt-41" value="AZ-PDMS-ME-TST-EUN&lt;br&gt;Hosts: 1&lt;br&gt;Size: NV12s_v3" style="image;aspect=fixed;html=1;points=[];align=left;fontSize=12;image=img/lib/azure2/compute/VM_Scale_Sets.svg;labelPosition=right;verticalLabelPosition=middle;verticalAlign=middle;" parent="1" vertex="1">
          <mxGeometry x="130" y="670" width="68" height="68" as="geometry" />
        </mxCell>
        <mxCell id="wDzOlx1E3NnTIssNEkOt-42" value="AZ-PDMS-ME-WVD&lt;br&gt;Hosts: 3&lt;br&gt;Size: NV12s_v3" style="image;aspect=fixed;html=1;points=[];align=left;fontSize=12;image=img/lib/azure2/compute/VM_Scale_Sets.svg;labelPosition=right;verticalLabelPosition=middle;verticalAlign=middle;" parent="1" vertex="1">
          <mxGeometry x="130" y="760" width="68" height="68" as="geometry" />
        </mxCell>
        <mxCell id="wDzOlx1E3NnTIssNEkOt-43" value="AZ-PDMS-NPCC-WVD&lt;br&gt;Hosts: 6&lt;br&gt;Size: NV18ads_A10_v5" style="image;aspect=fixed;html=1;points=[];align=left;fontSize=12;image=img/lib/azure2/compute/VM_Scale_Sets.svg;labelPosition=right;verticalLabelPosition=middle;verticalAlign=middle;" parent="1" vertex="1">
          <mxGeometry x="357" y="310" width="68" height="68" as="geometry" />
        </mxCell>
        <mxCell id="wDzOlx1E3NnTIssNEkOt-44" value="AZ-S3D-2018-HF72-WVD&lt;br&gt;Hosts: 1&lt;br&gt;Size: NV12s_v3" style="image;aspect=fixed;html=1;points=[];align=left;fontSize=12;image=img/lib/azure2/compute/VM_Scale_Sets.svg;labelPosition=right;verticalLabelPosition=middle;verticalAlign=middle;" parent="1" vertex="1">
          <mxGeometry x="357" y="400" width="68" height="68" as="geometry" />
        </mxCell>
        <mxCell id="wDzOlx1E3NnTIssNEkOt-45" value="AZ-S3D-HF52-WVD&lt;br&gt;Hosts: 2&lt;br&gt;Size: NV12s_v3" style="image;aspect=fixed;html=1;points=[];align=left;fontSize=12;image=img/lib/azure2/compute/VM_Scale_Sets.svg;labelPosition=right;verticalLabelPosition=middle;verticalAlign=middle;" parent="1" vertex="1">
          <mxGeometry x="357" y="580" width="68" height="68" as="geometry" />
        </mxCell>
        <mxCell id="wDzOlx1E3NnTIssNEkOt-46" value="AZ-S3D-HF60-Batch&lt;br&gt;Hosts: 1&lt;br&gt;Size: A4m_v2" style="image;aspect=fixed;html=1;points=[];align=left;fontSize=12;image=img/lib/azure2/compute/VM_Scale_Sets.svg;labelPosition=right;verticalLabelPosition=middle;verticalAlign=middle;" parent="1" vertex="1">
          <mxGeometry x="357" y="668" width="68" height="68" as="geometry" />
        </mxCell>
        <mxCell id="wDzOlx1E3NnTIssNEkOt-47" value="AZ-S3D-HF52-Batch&lt;br&gt;Hosts: 1&lt;br&gt;Size: B4ms" style="image;aspect=fixed;html=1;points=[];align=left;fontSize=12;image=img/lib/azure2/compute/VM_Scale_Sets.svg;labelPosition=right;verticalLabelPosition=middle;verticalAlign=middle;" parent="1" vertex="1">
          <mxGeometry x="357" y="492" width="68" height="68" as="geometry" />
        </mxCell>
        <mxCell id="wDzOlx1E3NnTIssNEkOt-48" value="WS01-COTS-WVD-PRD-EUN-AZR" style="image;aspect=fixed;html=1;points=[];align=left;fontSize=12;image=img/lib/azure2/compute/Workspaces.svg;labelPosition=right;verticalLabelPosition=middle;verticalAlign=middle;" parent="1" vertex="1">
          <mxGeometry x="700" y="224" width="65" height="56.00000000000001" as="geometry" />
        </mxCell>
        <mxCell id="wDzOlx1E3NnTIssNEkOt-49" value="AZ-E3D-Batch&lt;br&gt;Hosts: 1&lt;br&gt;Size: D4s_v3" style="image;aspect=fixed;html=1;points=[];align=left;fontSize=12;image=img/lib/azure2/compute/VM_Scale_Sets.svg;labelPosition=right;verticalLabelPosition=middle;verticalAlign=middle;" parent="1" vertex="1">
          <mxGeometry x="750" y="310" width="68" height="68" as="geometry" />
        </mxCell>
        <mxCell id="wDzOlx1E3NnTIssNEkOt-50" value="AZ-E3D-LFM-WVD&lt;br&gt;Hosts: 1&lt;br&gt;Size: NV18ads_A10_v5" style="image;aspect=fixed;html=1;points=[];align=left;fontSize=12;image=img/lib/azure2/compute/VM_Scale_Sets.svg;labelPosition=right;verticalLabelPosition=middle;verticalAlign=middle;" parent="1" vertex="1">
          <mxGeometry x="750" y="400" width="68" height="68" as="geometry" />
        </mxCell>
        <mxCell id="wDzOlx1E3NnTIssNEkOt-51" value="AZ-E3D-TST-Batch&lt;br&gt;Hosts: 2&lt;br&gt;Size: NV18ads_A10_v5" style="image;aspect=fixed;html=1;points=[];align=left;fontSize=12;image=img/lib/azure2/compute/VM_Scale_Sets.svg;labelPosition=right;verticalLabelPosition=middle;verticalAlign=middle;" parent="1" vertex="1">
          <mxGeometry x="750" y="490" width="68" height="68" as="geometry" />
        </mxCell>
        <mxCell id="wDzOlx1E3NnTIssNEkOt-52" value="AZ-NAVIS-AVD&lt;br&gt;Hosts: 1&lt;br&gt;Size: NV12s_v3" style="image;aspect=fixed;html=1;points=[];align=left;fontSize=12;image=img/lib/azure2/compute/VM_Scale_Sets.svg;labelPosition=right;verticalLabelPosition=middle;verticalAlign=middle;" parent="1" vertex="1">
          <mxGeometry x="750" y="580" width="68" height="68" as="geometry" />
        </mxCell>
        <mxCell id="wDzOlx1E3NnTIssNEkOt-53" value="AZ-PDMS-HF48-Batch1&lt;br&gt;Hosts: 1&lt;br&gt;Size: D2as_v5" style="image;aspect=fixed;html=1;points=[];align=left;fontSize=12;image=img/lib/azure2/compute/VM_Scale_Sets.svg;labelPosition=right;verticalLabelPosition=middle;verticalAlign=middle;" parent="1" vertex="1">
          <mxGeometry x="750" y="670" width="68" height="68" as="geometry" />
        </mxCell>
        <mxCell id="wDzOlx1E3NnTIssNEkOt-54" value="AZ-S3D-2019&lt;br&gt;Hosts: 3&lt;br&gt;Size: D16a_v4" style="image;aspect=fixed;html=1;points=[];align=left;fontSize=12;image=img/lib/azure2/compute/VM_Scale_Sets.svg;labelPosition=right;verticalLabelPosition=middle;verticalAlign=middle;" parent="1" vertex="1">
          <mxGeometry x="750" y="760" width="68" height="68" as="geometry" />
        </mxCell>
        <mxCell id="wDzOlx1E3NnTIssNEkOt-55" value="AZ-S3D-HF60-WVD&lt;br&gt;Hosts: 1&lt;br&gt;Size: NV12s_v3" style="image;aspect=fixed;html=1;points=[];align=left;fontSize=12;image=img/lib/azure2/compute/VM_Scale_Sets.svg;labelPosition=right;verticalLabelPosition=middle;verticalAlign=middle;" parent="1" vertex="1">
          <mxGeometry x="750" y="850" width="68" height="68" as="geometry" />
        </mxCell>
        <mxCell id="wDzOlx1E3NnTIssNEkOt-56" value="AZ-S3D-PDS-WVD&lt;br&gt;Hosts: 1&lt;br&gt;Size: NV12s_v3" style="image;aspect=fixed;html=1;points=[];align=left;fontSize=12;image=img/lib/azure2/compute/VM_Scale_Sets.svg;labelPosition=right;verticalLabelPosition=middle;verticalAlign=middle;" parent="1" vertex="1">
          <mxGeometry x="980" y="310" width="68" height="68" as="geometry" />
        </mxCell>
        <mxCell id="wDzOlx1E3NnTIssNEkOt-57" value="AZ-S3D-V13-2-WVD&lt;br&gt;Hosts: 1&lt;br&gt;Size: NV12s_v3" style="image;aspect=fixed;html=1;points=[];align=left;fontSize=12;image=img/lib/azure2/compute/VM_Scale_Sets.svg;labelPosition=right;verticalLabelPosition=middle;verticalAlign=middle;" parent="1" vertex="1">
          <mxGeometry x="980" y="402" width="68" height="68" as="geometry" />
        </mxCell>
        <mxCell id="wDzOlx1E3NnTIssNEkOt-58" value="HP-SAS-PRD-Plant3D01-WVD&lt;br&gt;Hosts: 1&lt;br&gt;Size: NV4as_v4" style="image;aspect=fixed;html=1;points=[];align=left;fontSize=12;image=img/lib/azure2/compute/VM_Scale_Sets.svg;labelPosition=right;verticalLabelPosition=middle;verticalAlign=middle;" parent="1" vertex="1">
          <mxGeometry x="980" y="490" width="68" height="68" as="geometry" />
        </mxCell>
        <mxCell id="wDzOlx1E3NnTIssNEkOt-59" value="HP-SAS-PRD-Plant3D02-WVD&lt;br&gt;Hosts: 1&lt;br&gt;Size: NV4as_v4" style="image;aspect=fixed;html=1;points=[];align=left;fontSize=12;image=img/lib/azure2/compute/VM_Scale_Sets.svg;labelPosition=right;verticalLabelPosition=middle;verticalAlign=middle;" parent="1" vertex="1">
          <mxGeometry x="980" y="578" width="68" height="68" as="geometry" />
        </mxCell>
        <mxCell id="wDzOlx1E3NnTIssNEkOt-60" value="HP-SAS-PRD-Plant3D03-WVD&lt;br&gt;Hosts: 1&lt;br&gt;Size: NV4as_v4" style="image;aspect=fixed;html=1;points=[];align=left;fontSize=12;image=img/lib/azure2/compute/VM_Scale_Sets.svg;labelPosition=right;verticalLabelPosition=middle;verticalAlign=middle;" parent="1" vertex="1">
          <mxGeometry x="980" y="670" width="68" height="68" as="geometry" />
        </mxCell>
        <mxCell id="wDzOlx1E3NnTIssNEkOt-61" value="HP-SAS-PRD-Plant3D04-WVD&lt;br&gt;Hosts: 1&lt;br&gt;Size: NV4as_v4" style="image;aspect=fixed;html=1;points=[];align=left;fontSize=12;image=img/lib/azure2/compute/VM_Scale_Sets.svg;labelPosition=right;verticalLabelPosition=middle;verticalAlign=middle;" parent="1" vertex="1">
          <mxGeometry x="980" y="760" width="68" height="68" as="geometry" />
        </mxCell>
        <mxCell id="wDzOlx1E3NnTIssNEkOt-62" value="HP-SAS-PRD-Plant3D05-WVD&lt;br&gt;Hosts: 1&lt;br&gt;Size: NV4as_v4" style="image;aspect=fixed;html=1;points=[];align=left;fontSize=12;image=img/lib/azure2/compute/VM_Scale_Sets.svg;labelPosition=right;verticalLabelPosition=middle;verticalAlign=middle;" parent="1" vertex="1">
          <mxGeometry x="980" y="850" width="68" height="68" as="geometry" />
        </mxCell>
        <mxCell id="wDzOlx1E3NnTIssNEkOt-63" value="" style="rounded=1;whiteSpace=wrap;html=1;dashed=1;fillColor=none;" parent="1" vertex="1">
          <mxGeometry x="1295.5" y="260" width="327" height="271" as="geometry" />
        </mxCell>
        <mxCell id="wDzOlx1E3NnTIssNEkOt-64" value="WS-EUN-PRD-COTS-01" style="image;aspect=fixed;html=1;points=[];align=left;fontSize=12;image=img/lib/azure2/compute/Workspaces.svg;labelPosition=right;verticalLabelPosition=middle;verticalAlign=middle;" parent="1" vertex="1">
          <mxGeometry x="1290" y="224" width="65" height="56.00000000000001" as="geometry" />
        </mxCell>
        <mxCell id="wDzOlx1E3NnTIssNEkOt-65" value="HP-EUN-PRD-E3D-WVD&lt;br&gt;Hosts: 1&lt;br&gt;Size: NV18ads_A10_v5" style="image;aspect=fixed;html=1;points=[];align=left;fontSize=12;image=img/lib/azure2/compute/VM_Scale_Sets.svg;labelPosition=right;verticalLabelPosition=middle;verticalAlign=middle;" parent="1" vertex="1">
          <mxGeometry x="1340" y="311" width="68" height="68" as="geometry" />
        </mxCell>
        <mxCell id="wDzOlx1E3NnTIssNEkOt-66" value="HP-EUN-PRD-PDMS-WVD&lt;br&gt;Hosts: 2&lt;br&gt;Size: NV18ads_A10_v5" style="image;aspect=fixed;html=1;points=[];align=left;fontSize=12;image=img/lib/azure2/compute/VM_Scale_Sets.svg;labelPosition=right;verticalLabelPosition=middle;verticalAlign=middle;" parent="1" vertex="1">
          <mxGeometry x="1340" y="401" width="68" height="68" as="geometry" />
        </mxCell>
        <mxCell id="wDzOlx1E3NnTIssNEkOt-67" value="" style="rounded=1;whiteSpace=wrap;html=1;dashed=1;fillColor=none;" parent="1" vertex="1">
          <mxGeometry x="1298.25" y="597" width="327" height="154" as="geometry" />
        </mxCell>
        <mxCell id="wDzOlx1E3NnTIssNEkOt-68" value="WS-INC-PRD-COTS-01" style="image;aspect=fixed;html=1;points=[];align=left;fontSize=12;image=img/lib/azure2/compute/Workspaces.svg;labelPosition=right;verticalLabelPosition=middle;verticalAlign=middle;" parent="1" vertex="1">
          <mxGeometry x="1292.75" y="561" width="65" height="56.00000000000001" as="geometry" />
        </mxCell>
        <mxCell id="wDzOlx1E3NnTIssNEkOt-69" value="HP-INC-PRD-HF60-PE108-01&lt;br&gt;Hosts: 1&lt;br&gt;Size: NV12s_v3" style="image;aspect=fixed;html=1;points=[];align=left;fontSize=12;image=img/lib/azure2/compute/VM_Scale_Sets.svg;labelPosition=right;verticalLabelPosition=middle;verticalAlign=middle;" parent="1" vertex="1">
          <mxGeometry x="1340" y="641" width="68" height="68" as="geometry" />
        </mxCell>
        <mxCell id="wDzOlx1E3NnTIssNEkOt-70" value="" style="endArrow=classic;html=1;rounded=0;edgeStyle=orthogonalEdgeStyle;entryX=0.75;entryY=0;entryDx=0;entryDy=0;exitX=0;exitY=0.5;exitDx=0;exitDy=0;" parent="1" source="wDzOlx1E3NnTIssNEkOt-14" target="wDzOlx1E3NnTIssNEkOt-17" edge="1">
          <mxGeometry relative="1" as="geometry">
            <mxPoint x="470" y="90" as="sourcePoint" />
            <mxPoint x="550" y="90" as="targetPoint" />
          </mxGeometry>
        </mxCell>
      </root>
    </mxGraphModel>
  </diagram>
  <diagram id="3K_uUQAqFOqqeB33nnF-" name="Azure structure">
    <mxGraphModel dx="4354" dy="2623" grid="1" gridSize="10" guides="1" tooltips="1" connect="1" arrows="1" fold="1" page="1" pageScale="1" pageWidth="850" pageHeight="1100" math="0" shadow="0">
      <root>
        <mxCell id="0" />
        <mxCell id="1" parent="0" />
        <mxCell id="Fz4BXCE3DmNM-nRFNMD0-47" value="" style="rounded=0;whiteSpace=wrap;html=1;fillColor=#E6F2FB;strokeColor=none;" parent="1" vertex="1">
          <mxGeometry x="60" y="1110" width="1680" height="1560" as="geometry" />
        </mxCell>
        <mxCell id="Fz4BXCE3DmNM-nRFNMD0-50" value="" style="rounded=1;whiteSpace=wrap;html=1;dashed=1;fillColor=none;" parent="1" vertex="1">
          <mxGeometry x="120" y="1180" width="770" height="380" as="geometry" />
        </mxCell>
        <mxCell id="yfPmJWEcbC54YuShKkwk-2" value="" style="rounded=0;whiteSpace=wrap;html=1;fillColor=#E6F2FB;strokeColor=none;" parent="1" vertex="1">
          <mxGeometry x="60" y="60" width="3120" height="940" as="geometry" />
        </mxCell>
        <mxCell id="_3sLbY9-eVJbtEFNI5FL-1" value="" style="rounded=1;whiteSpace=wrap;html=1;dashed=1;fillColor=none;" parent="1" vertex="1">
          <mxGeometry x="120" y="130" width="2280" height="820" as="geometry" />
        </mxCell>
        <mxCell id="yfPmJWEcbC54YuShKkwk-1" value="Cloud Datacenter" style="image;aspect=fixed;html=1;points=[];align=left;fontSize=12;image=img/lib/azure2/general/Subscriptions.svg;labelPosition=right;verticalLabelPosition=middle;verticalAlign=middle;" parent="1" vertex="1">
          <mxGeometry x="40" y="20" width="44" height="71" as="geometry" />
        </mxCell>
        <mxCell id="nNMrUYL_DVxuTVWNfKNB-1" value="RG-SAS-PRD-VDI" style="image;aspect=fixed;html=1;points=[];align=left;fontSize=12;image=img/lib/azure2/general/Resource_Groups.svg;labelPosition=right;verticalLabelPosition=middle;verticalAlign=middle;" parent="1" vertex="1">
          <mxGeometry x="140" y="91" width="68" height="64" as="geometry" />
        </mxCell>
        <mxCell id="qF5U0eh9Tc5KR316oRc4-14" value="" style="rounded=1;whiteSpace=wrap;html=1;dashed=1;fillColor=none;" parent="1" vertex="1">
          <mxGeometry x="163" y="206" width="525" height="600" as="geometry" />
        </mxCell>
        <mxCell id="qF5U0eh9Tc5KR316oRc4-15" value="&quot;Az-VDI-SAS-Tenant&quot; Tenant" style="image;aspect=fixed;html=1;points=[];align=left;fontSize=12;image=img/lib/azure2/compute/Workspaces.svg;labelPosition=right;verticalLabelPosition=middle;verticalAlign=middle;" parent="1" vertex="1">
          <mxGeometry x="163" y="170" width="65" height="56.00000000000001" as="geometry" />
        </mxCell>
        <mxCell id="qF5U0eh9Tc5KR316oRc4-16" value="AZ-MLM-TST-WVD&lt;br&gt;Hosts: 2&lt;br&gt;Size: E4s_v3" style="image;aspect=fixed;html=1;points=[];align=left;fontSize=12;image=img/lib/azure2/compute/VM_Scale_Sets.svg;labelPosition=right;verticalLabelPosition=middle;verticalAlign=middle;" parent="1" vertex="1">
          <mxGeometry x="208" y="256" width="68" height="68" as="geometry" />
        </mxCell>
        <mxCell id="qF5U0eh9Tc5KR316oRc4-17" value="AZ-PDMS-HF48-Batch&lt;br&gt;Hosts: 1&lt;br&gt;Size: D4_v2_Promo" style="image;aspect=fixed;html=1;points=[];align=left;fontSize=12;image=img/lib/azure2/compute/VM_Scale_Sets.svg;labelPosition=right;verticalLabelPosition=middle;verticalAlign=middle;" parent="1" vertex="1">
          <mxGeometry x="208" y="346" width="68" height="68" as="geometry" />
        </mxCell>
        <mxCell id="qF5U0eh9Tc5KR316oRc4-18" value="AZ-PDMS-HF48-WVD&lt;br&gt;Hosts: 12&lt;br&gt;Size: NV12s_v3" style="image;aspect=fixed;html=1;points=[];align=left;fontSize=12;image=img/lib/azure2/compute/VM_Scale_Sets.svg;labelPosition=right;verticalLabelPosition=middle;verticalAlign=middle;" parent="1" vertex="1">
          <mxGeometry x="208" y="436" width="68" height="68" as="geometry" />
        </mxCell>
        <mxCell id="qF5U0eh9Tc5KR316oRc4-19" value="AZ-PDMS-ME-Batch&lt;br&gt;Hosts: 1&lt;br&gt;Size: A4m_v2" style="image;aspect=fixed;html=1;points=[];align=left;fontSize=12;image=img/lib/azure2/compute/VM_Scale_Sets.svg;labelPosition=right;verticalLabelPosition=middle;verticalAlign=middle;" parent="1" vertex="1">
          <mxGeometry x="208" y="526" width="68" height="68" as="geometry" />
        </mxCell>
        <mxCell id="qF5U0eh9Tc5KR316oRc4-20" value="AZ-PDMS-ME-TST-EUN&lt;br&gt;Hosts: 1&lt;br&gt;Size: NV12s_v3" style="image;aspect=fixed;html=1;points=[];align=left;fontSize=12;image=img/lib/azure2/compute/VM_Scale_Sets.svg;labelPosition=right;verticalLabelPosition=middle;verticalAlign=middle;" parent="1" vertex="1">
          <mxGeometry x="208" y="616" width="68" height="68" as="geometry" />
        </mxCell>
        <mxCell id="qF5U0eh9Tc5KR316oRc4-21" value="AZ-PDMS-ME-WVD&lt;br&gt;Hosts: 3&lt;br&gt;Size: NV12s_v3" style="image;aspect=fixed;html=1;points=[];align=left;fontSize=12;image=img/lib/azure2/compute/VM_Scale_Sets.svg;labelPosition=right;verticalLabelPosition=middle;verticalAlign=middle;" parent="1" vertex="1">
          <mxGeometry x="208" y="706" width="68" height="68" as="geometry" />
        </mxCell>
        <mxCell id="qF5U0eh9Tc5KR316oRc4-22" value="AZ-PDMS-NPCC-WVD&lt;br&gt;Hosts: 6&lt;br&gt;Size: NV18ads_A10_v5" style="image;aspect=fixed;html=1;points=[];align=left;fontSize=12;image=img/lib/azure2/compute/VM_Scale_Sets.svg;labelPosition=right;verticalLabelPosition=middle;verticalAlign=middle;" parent="1" vertex="1">
          <mxGeometry x="435" y="256" width="68" height="68" as="geometry" />
        </mxCell>
        <mxCell id="qF5U0eh9Tc5KR316oRc4-23" value="AZ-S3D-2018-HF72-WVD&lt;br&gt;Hosts: 1&lt;br&gt;Size: NV12s_v3" style="image;aspect=fixed;html=1;points=[];align=left;fontSize=12;image=img/lib/azure2/compute/VM_Scale_Sets.svg;labelPosition=right;verticalLabelPosition=middle;verticalAlign=middle;" parent="1" vertex="1">
          <mxGeometry x="435" y="346" width="68" height="68" as="geometry" />
        </mxCell>
        <mxCell id="qF5U0eh9Tc5KR316oRc4-24" value="AZ-S3D-HF52-WVD&lt;br&gt;Hosts: 2&lt;br&gt;Size: NV12s_v3" style="image;aspect=fixed;html=1;points=[];align=left;fontSize=12;image=img/lib/azure2/compute/VM_Scale_Sets.svg;labelPosition=right;verticalLabelPosition=middle;verticalAlign=middle;" parent="1" vertex="1">
          <mxGeometry x="435" y="526" width="68" height="68" as="geometry" />
        </mxCell>
        <mxCell id="qF5U0eh9Tc5KR316oRc4-25" value="AZ-S3D-HF60-Batch&lt;br&gt;Hosts: 1&lt;br&gt;Size: A4m_v2" style="image;aspect=fixed;html=1;points=[];align=left;fontSize=12;image=img/lib/azure2/compute/VM_Scale_Sets.svg;labelPosition=right;verticalLabelPosition=middle;verticalAlign=middle;" parent="1" vertex="1">
          <mxGeometry x="435" y="614" width="68" height="68" as="geometry" />
        </mxCell>
        <mxCell id="qF5U0eh9Tc5KR316oRc4-26" value="AZ-S3D-HF52-Batch&lt;br&gt;Hosts: 1&lt;br&gt;Size: B4ms" style="image;aspect=fixed;html=1;points=[];align=left;fontSize=12;image=img/lib/azure2/compute/VM_Scale_Sets.svg;labelPosition=right;verticalLabelPosition=middle;verticalAlign=middle;" parent="1" vertex="1">
          <mxGeometry x="435" y="438" width="68" height="68" as="geometry" />
        </mxCell>
        <mxCell id="Fz4BXCE3DmNM-nRFNMD0-1" value="" style="rounded=1;whiteSpace=wrap;html=1;dashed=1;fillColor=none;" parent="1" vertex="1">
          <mxGeometry x="735.5" y="206" width="1174.5" height="700" as="geometry" />
        </mxCell>
        <mxCell id="Fz4BXCE3DmNM-nRFNMD0-2" value="WS01-COTS-WVD-PRD-EUN-AZR" style="image;aspect=fixed;html=1;points=[];align=left;fontSize=12;image=img/lib/azure2/compute/Workspaces.svg;labelPosition=right;verticalLabelPosition=middle;verticalAlign=middle;" parent="1" vertex="1">
          <mxGeometry x="730" y="170" width="65" height="56.00000000000001" as="geometry" />
        </mxCell>
        <mxCell id="Fz4BXCE3DmNM-nRFNMD0-3" value="AZ-E3D-Batch&lt;br&gt;Hosts: 1&lt;br&gt;Size: D4s_v3" style="image;aspect=fixed;html=1;points=[];align=left;fontSize=12;image=img/lib/azure2/compute/VM_Scale_Sets.svg;labelPosition=right;verticalLabelPosition=middle;verticalAlign=middle;" parent="1" vertex="1">
          <mxGeometry x="780" y="256" width="68" height="68" as="geometry" />
        </mxCell>
        <mxCell id="Fz4BXCE3DmNM-nRFNMD0-4" value="AZ-E3D-LFM-WVD&lt;br&gt;Hosts: 1&lt;br&gt;Size: NV18ads_A10_v5" style="image;aspect=fixed;html=1;points=[];align=left;fontSize=12;image=img/lib/azure2/compute/VM_Scale_Sets.svg;labelPosition=right;verticalLabelPosition=middle;verticalAlign=middle;" parent="1" vertex="1">
          <mxGeometry x="780" y="346" width="68" height="68" as="geometry" />
        </mxCell>
        <mxCell id="Fz4BXCE3DmNM-nRFNMD0-5" value="AZ-E3D-TST-Batch&lt;br&gt;Hosts: 2&lt;br&gt;Size: NV18ads_A10_v5" style="image;aspect=fixed;html=1;points=[];align=left;fontSize=12;image=img/lib/azure2/compute/VM_Scale_Sets.svg;labelPosition=right;verticalLabelPosition=middle;verticalAlign=middle;" parent="1" vertex="1">
          <mxGeometry x="780" y="436" width="68" height="68" as="geometry" />
        </mxCell>
        <mxCell id="Fz4BXCE3DmNM-nRFNMD0-6" value="AZ-NAVIS-AVD&lt;br&gt;Hosts: 1&lt;br&gt;Size: NV12s_v3" style="image;aspect=fixed;html=1;points=[];align=left;fontSize=12;image=img/lib/azure2/compute/VM_Scale_Sets.svg;labelPosition=right;verticalLabelPosition=middle;verticalAlign=middle;" parent="1" vertex="1">
          <mxGeometry x="780" y="526" width="68" height="68" as="geometry" />
        </mxCell>
        <mxCell id="Fz4BXCE3DmNM-nRFNMD0-7" value="AZ-PDMS-HF48-Batch1&lt;br&gt;Hosts: 1&lt;br&gt;Size: D2as_v5" style="image;aspect=fixed;html=1;points=[];align=left;fontSize=12;image=img/lib/azure2/compute/VM_Scale_Sets.svg;labelPosition=right;verticalLabelPosition=middle;verticalAlign=middle;" parent="1" vertex="1">
          <mxGeometry x="780" y="616" width="68" height="68" as="geometry" />
        </mxCell>
        <mxCell id="Fz4BXCE3DmNM-nRFNMD0-8" value="AZ-S3D-2019&lt;br&gt;Hosts: 3&lt;br&gt;Size: D16a_v4" style="image;aspect=fixed;html=1;points=[];align=left;fontSize=12;image=img/lib/azure2/compute/VM_Scale_Sets.svg;labelPosition=right;verticalLabelPosition=middle;verticalAlign=middle;" parent="1" vertex="1">
          <mxGeometry x="780" y="706" width="68" height="68" as="geometry" />
        </mxCell>
        <mxCell id="Fz4BXCE3DmNM-nRFNMD0-9" value="AZ-S3D-HF60-WVD&lt;br&gt;Hosts: 1&lt;br&gt;Size: NV12s_v3" style="image;aspect=fixed;html=1;points=[];align=left;fontSize=12;image=img/lib/azure2/compute/VM_Scale_Sets.svg;labelPosition=right;verticalLabelPosition=middle;verticalAlign=middle;" parent="1" vertex="1">
          <mxGeometry x="780" y="796" width="68" height="68" as="geometry" />
        </mxCell>
        <mxCell id="IH5r3bqnqpSmV9wZhY5T-54" style="edgeStyle=orthogonalEdgeStyle;rounded=0;orthogonalLoop=1;jettySize=auto;html=1;" edge="1" parent="1" source="Fz4BXCE3DmNM-nRFNMD0-10" target="IH5r3bqnqpSmV9wZhY5T-51">
          <mxGeometry relative="1" as="geometry" />
        </mxCell>
        <mxCell id="Fz4BXCE3DmNM-nRFNMD0-10" value="AZ-S3D-PDS-WVD&lt;br&gt;Hosts: 1&lt;br&gt;Size: NV12s_v3" style="image;aspect=fixed;html=1;points=[];align=left;fontSize=12;image=img/lib/azure2/compute/VM_Scale_Sets.svg;labelPosition=right;verticalLabelPosition=middle;verticalAlign=middle;" parent="1" vertex="1">
          <mxGeometry x="1340" y="252" width="68" height="68" as="geometry" />
        </mxCell>
        <mxCell id="Fz4BXCE3DmNM-nRFNMD0-11" value="AZ-S3D-V13-2-WVD&lt;br&gt;Hosts: 1&lt;br&gt;Size: NV12s_v3" style="image;aspect=fixed;html=1;points=[];align=left;fontSize=12;image=img/lib/azure2/compute/VM_Scale_Sets.svg;labelPosition=right;verticalLabelPosition=middle;verticalAlign=middle;" parent="1" vertex="1">
          <mxGeometry x="1340" y="344" width="68" height="68" as="geometry" />
        </mxCell>
        <mxCell id="Fz4BXCE3DmNM-nRFNMD0-12" value="HP-SAS-PRD-Plant3D01-WVD&lt;br&gt;Hosts: 1&lt;br&gt;Size: NV4as_v4" style="image;aspect=fixed;html=1;points=[];align=left;fontSize=12;image=img/lib/azure2/compute/VM_Scale_Sets.svg;labelPosition=right;verticalLabelPosition=middle;verticalAlign=middle;" parent="1" vertex="1">
          <mxGeometry x="1340" y="432" width="68" height="68" as="geometry" />
        </mxCell>
        <mxCell id="Fz4BXCE3DmNM-nRFNMD0-13" value="HP-SAS-PRD-Plant3D02-WVD&lt;br&gt;Hosts: 1&lt;br&gt;Size: NV4as_v4" style="image;aspect=fixed;html=1;points=[];align=left;fontSize=12;image=img/lib/azure2/compute/VM_Scale_Sets.svg;labelPosition=right;verticalLabelPosition=middle;verticalAlign=middle;" parent="1" vertex="1">
          <mxGeometry x="1340" y="520" width="68" height="68" as="geometry" />
        </mxCell>
        <mxCell id="Fz4BXCE3DmNM-nRFNMD0-14" value="HP-SAS-PRD-Plant3D03-WVD&lt;br&gt;Hosts: 1&lt;br&gt;Size: NV4as_v4" style="image;aspect=fixed;html=1;points=[];align=left;fontSize=12;image=img/lib/azure2/compute/VM_Scale_Sets.svg;labelPosition=right;verticalLabelPosition=middle;verticalAlign=middle;" parent="1" vertex="1">
          <mxGeometry x="1340" y="612" width="68" height="68" as="geometry" />
        </mxCell>
        <mxCell id="Fz4BXCE3DmNM-nRFNMD0-15" value="HP-SAS-PRD-Plant3D04-WVD&lt;br&gt;Hosts: 1&lt;br&gt;Size: NV4as_v4" style="image;aspect=fixed;html=1;points=[];align=left;fontSize=12;image=img/lib/azure2/compute/VM_Scale_Sets.svg;labelPosition=right;verticalLabelPosition=middle;verticalAlign=middle;" parent="1" vertex="1">
          <mxGeometry x="1340" y="702" width="68" height="68" as="geometry" />
        </mxCell>
        <mxCell id="Fz4BXCE3DmNM-nRFNMD0-16" value="HP-SAS-PRD-Plant3D05-WVD&lt;br&gt;Hosts: 1&lt;br&gt;Size: NV4as_v4" style="image;aspect=fixed;html=1;points=[];align=left;fontSize=12;image=img/lib/azure2/compute/VM_Scale_Sets.svg;labelPosition=right;verticalLabelPosition=middle;verticalAlign=middle;" parent="1" vertex="1">
          <mxGeometry x="1340" y="792" width="68" height="68" as="geometry" />
        </mxCell>
        <mxCell id="Fz4BXCE3DmNM-nRFNMD0-17" value="RG-SAS-PRD-VDI-IMAGES" style="image;aspect=fixed;html=1;points=[];align=left;fontSize=12;image=img/lib/azure2/general/Resource_Groups.svg;labelPosition=right;verticalLabelPosition=middle;verticalAlign=middle;" parent="1" vertex="1">
          <mxGeometry x="2480" y="92" width="68" height="64" as="geometry" />
        </mxCell>
        <mxCell id="Fz4BXCE3DmNM-nRFNMD0-18" value="" style="rounded=1;whiteSpace=wrap;html=1;dashed=1;fillColor=none;" parent="1" vertex="1">
          <mxGeometry x="2460" y="132" width="300" height="660" as="geometry" />
        </mxCell>
        <mxCell id="Fz4BXCE3DmNM-nRFNMD0-19" value="VDI-3D-NAVIS-V1" style="image;aspect=fixed;html=1;points=[];align=center;fontSize=12;image=img/lib/azure2/compute/Images.svg;" parent="1" vertex="1">
          <mxGeometry x="2510" y="172" width="69" height="64" as="geometry" />
        </mxCell>
        <mxCell id="Fz4BXCE3DmNM-nRFNMD0-20" value="VDI-E3D-V2" style="image;aspect=fixed;html=1;points=[];align=center;fontSize=12;image=img/lib/azure2/compute/Images.svg;" parent="1" vertex="1">
          <mxGeometry x="2510" y="272" width="69" height="64" as="geometry" />
        </mxCell>
        <mxCell id="Fz4BXCE3DmNM-nRFNMD0-21" value="VDI-E3D-V4" style="image;aspect=fixed;html=1;points=[];align=center;fontSize=12;image=img/lib/azure2/compute/Images.svg;" parent="1" vertex="1">
          <mxGeometry x="2510" y="372" width="69" height="64" as="geometry" />
        </mxCell>
        <mxCell id="Fz4BXCE3DmNM-nRFNMD0-22" value="VDI-PDMS-ME-V1" style="image;aspect=fixed;html=1;points=[];align=center;fontSize=12;image=img/lib/azure2/compute/Images.svg;" parent="1" vertex="1">
          <mxGeometry x="2510" y="472" width="69" height="64" as="geometry" />
        </mxCell>
        <mxCell id="Fz4BXCE3DmNM-nRFNMD0-40" value="" style="edgeStyle=orthogonalEdgeStyle;rounded=0;orthogonalLoop=1;jettySize=auto;html=1;" parent="1" source="Fz4BXCE3DmNM-nRFNMD0-23" target="Fz4BXCE3DmNM-nRFNMD0-33" edge="1">
          <mxGeometry relative="1" as="geometry" />
        </mxCell>
        <mxCell id="Fz4BXCE3DmNM-nRFNMD0-23" value="VDI-PDMSHF48-V1" style="image;aspect=fixed;html=1;points=[];align=center;fontSize=12;image=img/lib/azure2/compute/Images.svg;" parent="1" vertex="1">
          <mxGeometry x="2510" y="572" width="69" height="64" as="geometry" />
        </mxCell>
        <mxCell id="Fz4BXCE3DmNM-nRFNMD0-24" value="VDI-PDNPCC1-SAS" style="image;aspect=fixed;html=1;points=[];align=center;fontSize=12;image=img/lib/azure2/compute/Images.svg;" parent="1" vertex="1">
          <mxGeometry x="2510" y="672" width="69" height="64" as="geometry" />
        </mxCell>
        <mxCell id="Fz4BXCE3DmNM-nRFNMD0-25" value="VDI-PDS-3D-V1" style="image;aspect=fixed;html=1;points=[];align=center;fontSize=12;image=img/lib/azure2/compute/Images.svg;" parent="1" vertex="1">
          <mxGeometry x="2630" y="172" width="69" height="64" as="geometry" />
        </mxCell>
        <mxCell id="Fz4BXCE3DmNM-nRFNMD0-26" value="VDI-PLANT3D-WVD" style="image;aspect=fixed;html=1;points=[];align=center;fontSize=12;image=img/lib/azure2/compute/Images.svg;" parent="1" vertex="1">
          <mxGeometry x="2630" y="272" width="69" height="64" as="geometry" />
        </mxCell>
        <mxCell id="Fz4BXCE3DmNM-nRFNMD0-27" value="VDI-S3D-HF60-V1" style="image;aspect=fixed;html=1;points=[];align=center;fontSize=12;image=img/lib/azure2/compute/Images.svg;" parent="1" vertex="1">
          <mxGeometry x="2630" y="372" width="69" height="64" as="geometry" />
        </mxCell>
        <mxCell id="Fz4BXCE3DmNM-nRFNMD0-32" value="VDI-S3D-HF72-V1" style="image;aspect=fixed;html=1;points=[];align=center;fontSize=12;image=img/lib/azure2/compute/Images.svg;" parent="1" vertex="1">
          <mxGeometry x="2630" y="472" width="69" height="64" as="geometry" />
        </mxCell>
        <mxCell id="Fz4BXCE3DmNM-nRFNMD0-33" value="VDI-S3D-HF72-V2" style="image;aspect=fixed;html=1;points=[];align=center;fontSize=12;image=img/lib/azure2/compute/Images.svg;" parent="1" vertex="1">
          <mxGeometry x="2630" y="572" width="69" height="64" as="geometry" />
        </mxCell>
        <mxCell id="Fz4BXCE3DmNM-nRFNMD0-34" value="VDI-E3D-V1" style="image;aspect=fixed;html=1;points=[];align=center;fontSize=12;image=img/lib/azure2/compute/Images.svg;" parent="1" vertex="1">
          <mxGeometry x="2012" y="210" width="69" height="64" as="geometry" />
        </mxCell>
        <mxCell id="Fz4BXCE3DmNM-nRFNMD0-35" value="VDI-E3D-V3" style="image;aspect=fixed;html=1;points=[];align=center;fontSize=12;image=img/lib/azure2/compute/Images.svg;" parent="1" vertex="1">
          <mxGeometry x="2012" y="310" width="69" height="64" as="geometry" />
        </mxCell>
        <mxCell id="Fz4BXCE3DmNM-nRFNMD0-36" value="VDI-MLM-TST-01" style="image;aspect=fixed;html=1;points=[];align=center;fontSize=12;image=img/lib/azure2/compute/Images.svg;" parent="1" vertex="1">
          <mxGeometry x="2012" y="410" width="69" height="64" as="geometry" />
        </mxCell>
        <mxCell id="Fz4BXCE3DmNM-nRFNMD0-37" value="VDI-PDM-NPCC-V2" style="image;aspect=fixed;html=1;points=[];align=center;fontSize=12;image=img/lib/azure2/compute/Images.svg;" parent="1" vertex="1">
          <mxGeometry x="2012" y="510" width="69" height="64" as="geometry" />
        </mxCell>
        <mxCell id="Fz4BXCE3DmNM-nRFNMD0-38" value="VDI-PDMSHF48-V3" style="image;aspect=fixed;html=1;points=[];align=center;fontSize=12;image=img/lib/azure2/compute/Images.svg;" parent="1" vertex="1">
          <mxGeometry x="2012" y="610" width="69" height="64" as="geometry" />
        </mxCell>
        <mxCell id="Fz4BXCE3DmNM-nRFNMD0-39" value="VDI-S3D-HF52-CL" style="image;aspect=fixed;html=1;points=[];align=center;fontSize=12;image=img/lib/azure2/compute/Images.svg;" parent="1" vertex="1">
          <mxGeometry x="2012" y="710" width="69" height="64" as="geometry" />
        </mxCell>
        <mxCell id="Fz4BXCE3DmNM-nRFNMD0-41" value="VDI-S3D-V13-V2" style="image;aspect=fixed;html=1;points=[];align=center;fontSize=12;image=img/lib/azure2/compute/Images.svg;" parent="1" vertex="1">
          <mxGeometry x="2012" y="806" width="69" height="64" as="geometry" />
        </mxCell>
        <mxCell id="Fz4BXCE3DmNM-nRFNMD0-45" value="" style="edgeStyle=orthogonalEdgeStyle;rounded=0;orthogonalLoop=1;jettySize=auto;html=1;" parent="1" source="Fz4BXCE3DmNM-nRFNMD0-42" target="Fz4BXCE3DmNM-nRFNMD0-43" edge="1">
          <mxGeometry relative="1" as="geometry">
            <mxPoint x="2269.5" y="236" as="targetPoint" />
            <Array as="points">
              <mxPoint x="2172" y="324" />
            </Array>
          </mxGeometry>
        </mxCell>
        <mxCell id="Fz4BXCE3DmNM-nRFNMD0-42" value="sa01vdisasazr" style="image;aspect=fixed;html=1;points=[];align=center;fontSize=12;image=img/lib/azure2/storage/Storage_Accounts.svg;" parent="1" vertex="1">
          <mxGeometry x="2132" y="210" width="65" height="52" as="geometry" />
        </mxCell>
        <mxCell id="Fz4BXCE3DmNM-nRFNMD0-43" value="wvd-profiles" style="image;aspect=fixed;html=1;points=[];align=center;fontSize=12;image=img/lib/azure2/storage/Azure_Fileshare.svg;" parent="1" vertex="1">
          <mxGeometry x="2212" y="290" width="68" height="68" as="geometry" />
        </mxCell>
        <mxCell id="Fz4BXCE3DmNM-nRFNMD0-48" value="PFC-LZ-AVD-Prod" style="image;aspect=fixed;html=1;points=[];align=left;fontSize=12;image=img/lib/azure2/general/Subscriptions.svg;labelPosition=right;verticalLabelPosition=middle;verticalAlign=middle;" parent="1" vertex="1">
          <mxGeometry x="40" y="1070" width="44" height="71" as="geometry" />
        </mxCell>
        <mxCell id="Fz4BXCE3DmNM-nRFNMD0-49" value="RG-EUN-PRD-AVD-ServiceObjects" style="image;aspect=fixed;html=1;points=[];align=left;fontSize=12;image=img/lib/azure2/general/Resource_Groups.svg;labelPosition=right;verticalLabelPosition=middle;verticalAlign=middle;" parent="1" vertex="1">
          <mxGeometry x="140" y="1141" width="68" height="64" as="geometry" />
        </mxCell>
        <mxCell id="Zh-63IMnu6-ICueG3EBk-1" value="" style="rounded=1;whiteSpace=wrap;html=1;dashed=1;fillColor=none;" parent="1" vertex="1">
          <mxGeometry x="168.5" y="1256" width="671.5" height="271" as="geometry" />
        </mxCell>
        <mxCell id="Zh-63IMnu6-ICueG3EBk-2" value="WS-EUN-PRD-COTS-01" style="image;aspect=fixed;html=1;points=[];align=left;fontSize=12;image=img/lib/azure2/compute/Workspaces.svg;labelPosition=right;verticalLabelPosition=middle;verticalAlign=middle;" parent="1" vertex="1">
          <mxGeometry x="163" y="1220" width="65" height="56.00000000000001" as="geometry" />
        </mxCell>
        <mxCell id="CYK7nWc4Pnnn1mVoqXpb-4" value="" style="edgeStyle=orthogonalEdgeStyle;rounded=0;orthogonalLoop=1;jettySize=auto;html=1;" parent="1" source="Zh-63IMnu6-ICueG3EBk-3" edge="1">
          <mxGeometry relative="1" as="geometry">
            <mxPoint x="361" y="1341" as="targetPoint" />
          </mxGeometry>
        </mxCell>
        <mxCell id="CYK7nWc4Pnnn1mVoqXpb-5" style="edgeStyle=orthogonalEdgeStyle;rounded=0;orthogonalLoop=1;jettySize=auto;html=1;" parent="1" source="Zh-63IMnu6-ICueG3EBk-3" target="CYK7nWc4Pnnn1mVoqXpb-1" edge="1">
          <mxGeometry relative="1" as="geometry" />
        </mxCell>
        <mxCell id="Zh-63IMnu6-ICueG3EBk-3" value="HP-EUN-PRD-E3D-WVD&lt;br&gt;Hosts: 1&lt;br&gt;Size: NV18ads_A10_v5" style="image;aspect=fixed;html=1;points=[];align=left;fontSize=12;image=img/lib/azure2/compute/VM_Scale_Sets.svg;labelPosition=right;verticalLabelPosition=middle;verticalAlign=middle;" parent="1" vertex="1">
          <mxGeometry x="213" y="1307" width="68" height="68" as="geometry" />
        </mxCell>
        <mxCell id="CYK7nWc4Pnnn1mVoqXpb-7" style="edgeStyle=orthogonalEdgeStyle;rounded=0;orthogonalLoop=1;jettySize=auto;html=1;" parent="1" source="Zh-63IMnu6-ICueG3EBk-4" target="CYK7nWc4Pnnn1mVoqXpb-6" edge="1">
          <mxGeometry relative="1" as="geometry" />
        </mxCell>
        <mxCell id="Zh-63IMnu6-ICueG3EBk-4" value="HP-EUN-PRD-PDMS-WVD&lt;br&gt;Hosts: 2&lt;br&gt;Size: NV18ads_A10_v5" style="image;aspect=fixed;html=1;points=[];align=left;fontSize=12;image=img/lib/azure2/compute/VM_Scale_Sets.svg;labelPosition=right;verticalLabelPosition=middle;verticalAlign=middle;" parent="1" vertex="1">
          <mxGeometry x="213" y="1397" width="68" height="68" as="geometry" />
        </mxCell>
        <mxCell id="CYK7nWc4Pnnn1mVoqXpb-1" value="HP-EUN-PRD-E3D-WVD-AppGroup" style="image;aspect=fixed;html=1;points=[];align=left;fontSize=12;image=img/lib/azure2/intune/Client_Apps.svg;labelPosition=right;verticalLabelPosition=middle;verticalAlign=middle;" parent="1" vertex="1">
          <mxGeometry x="460" y="1307" width="68" height="68" as="geometry" />
        </mxCell>
        <mxCell id="CYK7nWc4Pnnn1mVoqXpb-6" value="HP-EUN-PRD-PDMS-WVD-AppGroup" style="image;aspect=fixed;html=1;points=[];align=left;fontSize=12;image=img/lib/azure2/intune/Client_Apps.svg;labelPosition=right;verticalLabelPosition=middle;verticalAlign=middle;" parent="1" vertex="1">
          <mxGeometry x="460" y="1397" width="68" height="68" as="geometry" />
        </mxCell>
        <mxCell id="CYK7nWc4Pnnn1mVoqXpb-9" value="" style="rounded=1;whiteSpace=wrap;html=1;dashed=1;fillColor=none;" parent="1" vertex="1">
          <mxGeometry x="120" y="1609" width="410" height="331" as="geometry" />
        </mxCell>
        <mxCell id="CYK7nWc4Pnnn1mVoqXpb-10" value="RG-EUN-PRD-AVD-Compute" style="image;aspect=fixed;html=1;points=[];align=left;fontSize=12;image=img/lib/azure2/general/Resource_Groups.svg;labelPosition=right;verticalLabelPosition=middle;verticalAlign=middle;" parent="1" vertex="1">
          <mxGeometry x="140" y="1570" width="68" height="64" as="geometry" />
        </mxCell>
        <mxCell id="CYK7nWc4Pnnn1mVoqXpb-13" value="" style="rounded=1;whiteSpace=wrap;html=1;dashed=1;fillColor=none;" parent="1" vertex="1">
          <mxGeometry x="950" y="1180" width="360" height="380" as="geometry" />
        </mxCell>
        <mxCell id="CYK7nWc4Pnnn1mVoqXpb-14" value="RG-EUN-PRD-AVD-Networking" style="image;aspect=fixed;html=1;points=[];align=left;fontSize=12;image=img/lib/azure2/general/Resource_Groups.svg;labelPosition=right;verticalLabelPosition=middle;verticalAlign=middle;" parent="1" vertex="1">
          <mxGeometry x="970" y="1141" width="68" height="64" as="geometry" />
        </mxCell>
        <mxCell id="CYK7nWc4Pnnn1mVoqXpb-15" value="VN-EUN-PRD-AVD" style="image;aspect=fixed;html=1;points=[];align=left;fontSize=12;image=img/lib/azure2/networking/Virtual_Networks.svg;labelPosition=right;verticalLabelPosition=middle;verticalAlign=middle;" parent="1" vertex="1">
          <mxGeometry x="1011" y="1261" width="67" height="40" as="geometry" />
        </mxCell>
        <mxCell id="CYK7nWc4Pnnn1mVoqXpb-16" value="RT-EUN-PRD-AVD" style="image;aspect=fixed;html=1;points=[];align=left;fontSize=12;image=img/lib/azure2/networking/Route_Tables.svg;labelPosition=right;verticalLabelPosition=middle;verticalAlign=middle;" parent="1" vertex="1">
          <mxGeometry x="1008.5" y="1325" width="64" height="62" as="geometry" />
        </mxCell>
        <mxCell id="CYK7nWc4Pnnn1mVoqXpb-17" value="privatelink.file.core.windows.net" style="image;aspect=fixed;html=1;points=[];align=left;fontSize=12;image=img/lib/azure2/networking/DNS_Zones.svg;labelPosition=right;verticalLabelPosition=middle;verticalAlign=middle;" parent="1" vertex="1">
          <mxGeometry x="1011" y="1415" width="64" height="64" as="geometry" />
        </mxCell>
        <mxCell id="CYK7nWc4Pnnn1mVoqXpb-18" value="" style="rounded=1;whiteSpace=wrap;html=1;dashed=1;fillColor=none;" parent="1" vertex="1">
          <mxGeometry x="1350" y="1180" width="330" height="380" as="geometry" />
        </mxCell>
        <mxCell id="CYK7nWc4Pnnn1mVoqXpb-19" value="RG-EUN-PRD-AVD-Images" style="image;aspect=fixed;html=1;points=[];align=left;fontSize=12;image=img/lib/azure2/general/Resource_Groups.svg;labelPosition=right;verticalLabelPosition=middle;verticalAlign=middle;" parent="1" vertex="1">
          <mxGeometry x="1370" y="1141" width="68" height="64" as="geometry" />
        </mxCell>
        <mxCell id="CYK7nWc4Pnnn1mVoqXpb-20" value="VDI-OfficeApps" style="image;aspect=fixed;html=1;points=[];align=left;fontSize=12;image=img/lib/azure2/compute/Images.svg;labelPosition=right;verticalLabelPosition=middle;verticalAlign=middle;" parent="1" vertex="1">
          <mxGeometry x="1420" y="1211" width="69" height="64" as="geometry" />
        </mxCell>
        <mxCell id="CYK7nWc4Pnnn1mVoqXpb-21" value="VDI-PDMS-ME-V2" style="image;aspect=fixed;html=1;points=[];align=left;fontSize=12;image=img/lib/azure2/compute/Images.svg;labelPosition=right;verticalLabelPosition=middle;verticalAlign=middle;" parent="1" vertex="1">
          <mxGeometry x="1420" y="1297" width="69" height="64" as="geometry" />
        </mxCell>
        <mxCell id="CYK7nWc4Pnnn1mVoqXpb-22" value="VDI-PDNPCC1-EUN" style="image;aspect=fixed;html=1;points=[];align=left;fontSize=12;image=img/lib/azure2/compute/Images.svg;labelPosition=right;verticalLabelPosition=middle;verticalAlign=middle;" parent="1" vertex="1">
          <mxGeometry x="1420" y="1465" width="69" height="64" as="geometry" />
        </mxCell>
        <mxCell id="CYK7nWc4Pnnn1mVoqXpb-23" value="VDI-PDMSME1-EUN" style="image;aspect=fixed;html=1;points=[];align=left;fontSize=12;image=img/lib/azure2/compute/Images.svg;labelPosition=right;verticalLabelPosition=middle;verticalAlign=middle;" parent="1" vertex="1">
          <mxGeometry x="1420" y="1381" width="69" height="64" as="geometry" />
        </mxCell>
        <mxCell id="CYK7nWc4Pnnn1mVoqXpb-24" value="" style="rounded=1;whiteSpace=wrap;html=1;dashed=1;fillColor=none;" parent="1" vertex="1">
          <mxGeometry x="570" y="1609" width="320" height="330" as="geometry" />
        </mxCell>
        <mxCell id="CYK7nWc4Pnnn1mVoqXpb-25" value="RG-EUN-PRD-AVD-Storage" style="image;aspect=fixed;html=1;points=[];align=left;fontSize=12;image=img/lib/azure2/general/Resource_Groups.svg;labelPosition=right;verticalLabelPosition=middle;verticalAlign=middle;" parent="1" vertex="1">
          <mxGeometry x="580" y="1570" width="68" height="64" as="geometry" />
        </mxCell>
        <mxCell id="CYK7nWc4Pnnn1mVoqXpb-31" value="" style="edgeStyle=orthogonalEdgeStyle;rounded=0;orthogonalLoop=1;jettySize=auto;html=1;" parent="1" source="CYK7nWc4Pnnn1mVoqXpb-32" target="CYK7nWc4Pnnn1mVoqXpb-33" edge="1">
          <mxGeometry relative="1" as="geometry">
            <mxPoint x="793.5" y="1718" as="targetPoint" />
            <Array as="points">
              <mxPoint x="696" y="1806" />
            </Array>
          </mxGeometry>
        </mxCell>
        <mxCell id="CYK7nWc4Pnnn1mVoqXpb-32" value="saeunprdlzavd01fnc" style="image;aspect=fixed;html=1;points=[];align=center;fontSize=12;image=img/lib/azure2/storage/Storage_Accounts.svg;" parent="1" vertex="1">
          <mxGeometry x="656" y="1692" width="65" height="52" as="geometry" />
        </mxCell>
        <mxCell id="CYK7nWc4Pnnn1mVoqXpb-33" value="avd-profiles" style="image;aspect=fixed;html=1;points=[];align=center;fontSize=12;image=img/lib/azure2/storage/Azure_Fileshare.svg;" parent="1" vertex="1">
          <mxGeometry x="736" y="1772" width="68" height="68" as="geometry" />
        </mxCell>
        <mxCell id="CYK7nWc4Pnnn1mVoqXpb-34" value="AVD-E3D-8629" style="image;aspect=fixed;html=1;points=[];align=left;fontSize=12;image=img/lib/azure2/compute/Virtual_Machine.svg;labelPosition=right;verticalLabelPosition=middle;verticalAlign=middle;" parent="1" vertex="1">
          <mxGeometry x="208" y="1650" width="69" height="64" as="geometry" />
        </mxCell>
        <mxCell id="CYK7nWc4Pnnn1mVoqXpb-35" value="AVD-PDMS-6d63" style="image;aspect=fixed;html=1;points=[];align=left;fontSize=12;image=img/lib/azure2/compute/Virtual_Machine.svg;labelPosition=right;verticalLabelPosition=middle;verticalAlign=middle;" parent="1" vertex="1">
          <mxGeometry x="207" y="1744" width="69" height="64" as="geometry" />
        </mxCell>
        <mxCell id="CYK7nWc4Pnnn1mVoqXpb-36" value="AVD-PDMS-f90c" style="image;aspect=fixed;html=1;points=[];align=left;fontSize=12;image=img/lib/azure2/compute/Virtual_Machine.svg;labelPosition=right;verticalLabelPosition=middle;verticalAlign=middle;" parent="1" vertex="1">
          <mxGeometry x="208" y="1840" width="69" height="64" as="geometry" />
        </mxCell>
        <mxCell id="CYK7nWc4Pnnn1mVoqXpb-37" value="" style="rounded=1;whiteSpace=wrap;html=1;dashed=1;fillColor=none;" parent="1" vertex="1">
          <mxGeometry x="120" y="2069" width="770" height="291" as="geometry" />
        </mxCell>
        <mxCell id="CYK7nWc4Pnnn1mVoqXpb-38" value="RG-INC-PRD-AVD-ServiceObjects" style="image;aspect=fixed;html=1;points=[];align=left;fontSize=12;image=img/lib/azure2/general/Resource_Groups.svg;labelPosition=right;verticalLabelPosition=middle;verticalAlign=middle;" parent="1" vertex="1">
          <mxGeometry x="140" y="2030" width="68" height="64" as="geometry" />
        </mxCell>
        <mxCell id="CYK7nWc4Pnnn1mVoqXpb-39" value="" style="rounded=1;whiteSpace=wrap;html=1;dashed=1;fillColor=none;" parent="1" vertex="1">
          <mxGeometry x="168.5" y="2145" width="671.5" height="165" as="geometry" />
        </mxCell>
        <mxCell id="CYK7nWc4Pnnn1mVoqXpb-40" value="WS-INC-PRD-COTS-01" style="image;aspect=fixed;html=1;points=[];align=left;fontSize=12;image=img/lib/azure2/compute/Workspaces.svg;labelPosition=right;verticalLabelPosition=middle;verticalAlign=middle;" parent="1" vertex="1">
          <mxGeometry x="163" y="2109" width="65" height="56.00000000000001" as="geometry" />
        </mxCell>
        <mxCell id="CYK7nWc4Pnnn1mVoqXpb-41" value="" style="edgeStyle=orthogonalEdgeStyle;rounded=0;orthogonalLoop=1;jettySize=auto;html=1;" parent="1" source="CYK7nWc4Pnnn1mVoqXpb-43" edge="1">
          <mxGeometry relative="1" as="geometry">
            <mxPoint x="361" y="2230" as="targetPoint" />
          </mxGeometry>
        </mxCell>
        <mxCell id="CYK7nWc4Pnnn1mVoqXpb-42" style="edgeStyle=orthogonalEdgeStyle;rounded=0;orthogonalLoop=1;jettySize=auto;html=1;" parent="1" source="CYK7nWc4Pnnn1mVoqXpb-43" target="CYK7nWc4Pnnn1mVoqXpb-46" edge="1">
          <mxGeometry relative="1" as="geometry" />
        </mxCell>
        <mxCell id="CYK7nWc4Pnnn1mVoqXpb-43" value="HP-INC-PRD-HF60-PE108-01&lt;br&gt;Hosts: 1&lt;br&gt;Size: NV18ads_A10_v5" style="image;aspect=fixed;html=1;points=[];align=left;fontSize=12;image=img/lib/azure2/compute/VM_Scale_Sets.svg;labelPosition=right;verticalLabelPosition=middle;verticalAlign=middle;" parent="1" vertex="1">
          <mxGeometry x="213" y="2196" width="68" height="68" as="geometry" />
        </mxCell>
        <mxCell id="CYK7nWc4Pnnn1mVoqXpb-46" value="HP-INC-PRD-HF60-PE108-01-AppGroup" style="image;aspect=fixed;html=1;points=[];align=left;fontSize=12;image=img/lib/azure2/intune/Client_Apps.svg;labelPosition=right;verticalLabelPosition=middle;verticalAlign=middle;" parent="1" vertex="1">
          <mxGeometry x="460" y="2196" width="68" height="68" as="geometry" />
        </mxCell>
        <mxCell id="CYK7nWc4Pnnn1mVoqXpb-48" value="" style="rounded=1;whiteSpace=wrap;html=1;dashed=1;fillColor=none;" parent="1" vertex="1">
          <mxGeometry x="120" y="2390" width="410" height="162" as="geometry" />
        </mxCell>
        <mxCell id="CYK7nWc4Pnnn1mVoqXpb-49" value="RG-INC-PRD-AVD-Compute" style="image;aspect=fixed;html=1;points=[];align=left;fontSize=12;image=img/lib/azure2/general/Resource_Groups.svg;labelPosition=right;verticalLabelPosition=middle;verticalAlign=middle;" parent="1" vertex="1">
          <mxGeometry x="140" y="2459" width="68" height="64" as="geometry" />
        </mxCell>
        <mxCell id="CYK7nWc4Pnnn1mVoqXpb-50" value="" style="rounded=1;whiteSpace=wrap;html=1;dashed=1;fillColor=none;" parent="1" vertex="1">
          <mxGeometry x="950" y="2069" width="360" height="291" as="geometry" />
        </mxCell>
        <mxCell id="CYK7nWc4Pnnn1mVoqXpb-51" value="RG-INC-PRD-AVD-Networking" style="image;aspect=fixed;html=1;points=[];align=left;fontSize=12;image=img/lib/azure2/general/Resource_Groups.svg;labelPosition=right;verticalLabelPosition=middle;verticalAlign=middle;" parent="1" vertex="1">
          <mxGeometry x="970" y="2030" width="68" height="64" as="geometry" />
        </mxCell>
        <mxCell id="CYK7nWc4Pnnn1mVoqXpb-52" value="VN-INC-PRD-AVD" style="image;aspect=fixed;html=1;points=[];align=left;fontSize=12;image=img/lib/azure2/networking/Virtual_Networks.svg;labelPosition=right;verticalLabelPosition=middle;verticalAlign=middle;" parent="1" vertex="1">
          <mxGeometry x="1010.75" y="2109" width="67" height="40" as="geometry" />
        </mxCell>
        <mxCell id="CYK7nWc4Pnnn1mVoqXpb-53" value="RT-INC-PRD-AVD" style="image;aspect=fixed;html=1;points=[];align=left;fontSize=12;image=img/lib/azure2/networking/Route_Tables.svg;labelPosition=right;verticalLabelPosition=middle;verticalAlign=middle;" parent="1" vertex="1">
          <mxGeometry x="1008.25" y="2173" width="64" height="62" as="geometry" />
        </mxCell>
        <mxCell id="CYK7nWc4Pnnn1mVoqXpb-54" value="privatelink.file.core.windows.net" style="image;aspect=fixed;html=1;points=[];align=left;fontSize=12;image=img/lib/azure2/networking/DNS_Zones.svg;labelPosition=right;verticalLabelPosition=middle;verticalAlign=middle;" parent="1" vertex="1">
          <mxGeometry x="1010.75" y="2263" width="64" height="64" as="geometry" />
        </mxCell>
        <mxCell id="CYK7nWc4Pnnn1mVoqXpb-55" value="" style="rounded=1;whiteSpace=wrap;html=1;dashed=1;fillColor=none;" parent="1" vertex="1">
          <mxGeometry x="1350" y="2069" width="330" height="380" as="geometry" />
        </mxCell>
        <mxCell id="CYK7nWc4Pnnn1mVoqXpb-56" value="RG-INC-PRD-AVD-Images" style="image;aspect=fixed;html=1;points=[];align=left;fontSize=12;image=img/lib/azure2/general/Resource_Groups.svg;labelPosition=right;verticalLabelPosition=middle;verticalAlign=middle;" parent="1" vertex="1">
          <mxGeometry x="1370" y="2030" width="68" height="64" as="geometry" />
        </mxCell>
        <mxCell id="CYK7nWc4Pnnn1mVoqXpb-57" value="VDI-OfficeApps" style="image;aspect=fixed;html=1;points=[];align=left;fontSize=12;image=img/lib/azure2/compute/Images.svg;labelPosition=right;verticalLabelPosition=middle;verticalAlign=middle;" parent="1" vertex="1">
          <mxGeometry x="1420" y="2100" width="69" height="64" as="geometry" />
        </mxCell>
        <mxCell id="CYK7nWc4Pnnn1mVoqXpb-58" value="VDI-PDMS-ME-V2" style="image;aspect=fixed;html=1;points=[];align=left;fontSize=12;image=img/lib/azure2/compute/Images.svg;labelPosition=right;verticalLabelPosition=middle;verticalAlign=middle;" parent="1" vertex="1">
          <mxGeometry x="1420" y="2186" width="69" height="64" as="geometry" />
        </mxCell>
        <mxCell id="CYK7nWc4Pnnn1mVoqXpb-59" value="VDI-PDNPCC1-EUN" style="image;aspect=fixed;html=1;points=[];align=left;fontSize=12;image=img/lib/azure2/compute/Images.svg;labelPosition=right;verticalLabelPosition=middle;verticalAlign=middle;" parent="1" vertex="1">
          <mxGeometry x="1420" y="2354" width="69" height="64" as="geometry" />
        </mxCell>
        <mxCell id="CYK7nWc4Pnnn1mVoqXpb-60" value="VDI-PDMSME1-EUN" style="image;aspect=fixed;html=1;points=[];align=left;fontSize=12;image=img/lib/azure2/compute/Images.svg;labelPosition=right;verticalLabelPosition=middle;verticalAlign=middle;" parent="1" vertex="1">
          <mxGeometry x="1420" y="2270" width="69" height="64" as="geometry" />
        </mxCell>
        <mxCell id="CYK7nWc4Pnnn1mVoqXpb-61" value="" style="rounded=1;whiteSpace=wrap;html=1;dashed=1;fillColor=none;" parent="1" vertex="1">
          <mxGeometry x="570" y="2389.5" width="320" height="242" as="geometry" />
        </mxCell>
        <mxCell id="CYK7nWc4Pnnn1mVoqXpb-62" value="RG-INC-PRD-AVD-Storage" style="image;aspect=fixed;html=1;points=[];align=left;fontSize=12;image=img/lib/azure2/general/Resource_Groups.svg;labelPosition=right;verticalLabelPosition=middle;verticalAlign=middle;" parent="1" vertex="1">
          <mxGeometry x="580" y="2350.5" width="68" height="64" as="geometry" />
        </mxCell>
        <mxCell id="CYK7nWc4Pnnn1mVoqXpb-63" value="" style="edgeStyle=orthogonalEdgeStyle;rounded=0;orthogonalLoop=1;jettySize=auto;html=1;" parent="1" source="CYK7nWc4Pnnn1mVoqXpb-64" target="CYK7nWc4Pnnn1mVoqXpb-65" edge="1">
          <mxGeometry relative="1" as="geometry">
            <mxPoint x="785.5" y="2456.5" as="targetPoint" />
            <Array as="points">
              <mxPoint x="688" y="2544.5" />
            </Array>
          </mxGeometry>
        </mxCell>
        <mxCell id="CYK7nWc4Pnnn1mVoqXpb-64" value="saincprdlzavd01fnc" style="image;aspect=fixed;html=1;points=[];align=center;fontSize=12;image=img/lib/azure2/storage/Storage_Accounts.svg;" parent="1" vertex="1">
          <mxGeometry x="648" y="2430.5" width="65" height="52" as="geometry" />
        </mxCell>
        <mxCell id="CYK7nWc4Pnnn1mVoqXpb-65" value="avd-profiles" style="image;aspect=fixed;html=1;points=[];align=center;fontSize=12;image=img/lib/azure2/storage/Azure_Fileshare.svg;" parent="1" vertex="1">
          <mxGeometry x="728" y="2510.5" width="68" height="68" as="geometry" />
        </mxCell>
        <mxCell id="CYK7nWc4Pnnn1mVoqXpb-66" value="AVD-INC-ad68" style="image;aspect=fixed;html=1;points=[];align=left;fontSize=12;image=img/lib/azure2/compute/Virtual_Machine.svg;labelPosition=right;verticalLabelPosition=middle;verticalAlign=middle;" parent="1" vertex="1">
          <mxGeometry x="208" y="2539" width="69" height="64" as="geometry" />
        </mxCell>
        <mxCell id="IH5r3bqnqpSmV9wZhY5T-1" value="" style="rounded=0;whiteSpace=wrap;html=1;fillColor=#E6F2FB;strokeColor=none;" vertex="1" parent="1">
          <mxGeometry x="1840" y="1110" width="1200" height="1200" as="geometry" />
        </mxCell>
        <mxCell id="IH5r3bqnqpSmV9wZhY5T-2" value="PFC-LZ-Engineering-Prod" style="image;aspect=fixed;html=1;points=[];align=left;fontSize=12;image=img/lib/azure2/general/Subscriptions.svg;labelPosition=right;verticalLabelPosition=middle;verticalAlign=middle;" vertex="1" parent="1">
          <mxGeometry x="1815" y="1070" width="44" height="71" as="geometry" />
        </mxCell>
        <mxCell id="IH5r3bqnqpSmV9wZhY5T-3" value="" style="rounded=1;whiteSpace=wrap;html=1;dashed=1;fillColor=none;" vertex="1" parent="1">
          <mxGeometry x="1900" y="1180" width="330" height="220" as="geometry" />
        </mxCell>
        <mxCell id="IH5r3bqnqpSmV9wZhY5T-4" value="RG-EUN-PRD-App-Compute" style="image;aspect=fixed;html=1;points=[];align=left;fontSize=12;image=img/lib/azure2/general/Resource_Groups.svg;labelPosition=right;verticalLabelPosition=middle;verticalAlign=middle;" vertex="1" parent="1">
          <mxGeometry x="1920" y="1141" width="68" height="64" as="geometry" />
        </mxCell>
        <mxCell id="IH5r3bqnqpSmV9wZhY5T-5" value="APP100PRDEUNAZR" style="image;aspect=fixed;html=1;points=[];align=left;fontSize=12;image=img/lib/azure2/compute/Virtual_Machine.svg;labelPosition=right;verticalLabelPosition=middle;verticalAlign=middle;" vertex="1" parent="1">
          <mxGeometry x="1960" y="1220" width="69" height="64" as="geometry" />
        </mxCell>
        <mxCell id="IH5r3bqnqpSmV9wZhY5T-6" value="" style="rounded=1;whiteSpace=wrap;html=1;dashed=1;fillColor=none;" vertex="1" parent="1">
          <mxGeometry x="1900" y="1469" width="330" height="331" as="geometry" />
        </mxCell>
        <mxCell id="IH5r3bqnqpSmV9wZhY5T-7" value="RG-EUN-PRD-App-Networking" style="image;aspect=fixed;html=1;points=[];align=left;fontSize=12;image=img/lib/azure2/general/Resource_Groups.svg;labelPosition=right;verticalLabelPosition=middle;verticalAlign=middle;" vertex="1" parent="1">
          <mxGeometry x="1920" y="1430" width="68" height="64" as="geometry" />
        </mxCell>
        <mxCell id="IH5r3bqnqpSmV9wZhY5T-8" value="VN-EUN-PRD-App" style="image;aspect=fixed;html=1;points=[];align=left;fontSize=12;image=img/lib/azure2/networking/Virtual_Networks.svg;labelPosition=right;verticalLabelPosition=middle;verticalAlign=middle;" vertex="1" parent="1">
          <mxGeometry x="1960" y="1520" width="67" height="40" as="geometry" />
        </mxCell>
        <mxCell id="IH5r3bqnqpSmV9wZhY5T-9" value="RT-EUN-PRD-App" style="image;aspect=fixed;html=1;points=[];align=left;fontSize=12;image=img/lib/azure2/networking/Route_Tables.svg;labelPosition=right;verticalLabelPosition=middle;verticalAlign=middle;" vertex="1" parent="1">
          <mxGeometry x="1962.5" y="1588" width="64" height="62" as="geometry" />
        </mxCell>
        <mxCell id="IH5r3bqnqpSmV9wZhY5T-10" value="privatelink.file.core.windows.net" style="image;aspect=fixed;html=1;points=[];align=left;fontSize=12;image=img/lib/azure2/networking/DNS_Zones.svg;labelPosition=right;verticalLabelPosition=middle;verticalAlign=middle;" vertex="1" parent="1">
          <mxGeometry x="1962.5" y="1680" width="64" height="64" as="geometry" />
        </mxCell>
        <mxCell id="IH5r3bqnqpSmV9wZhY5T-11" value="" style="rounded=1;whiteSpace=wrap;html=1;dashed=1;fillColor=none;" vertex="1" parent="1">
          <mxGeometry x="2280" y="1180" width="330" height="331" as="geometry" />
        </mxCell>
        <mxCell id="IH5r3bqnqpSmV9wZhY5T-12" value="RG-EUN-PRD-App-Storage" style="image;aspect=fixed;html=1;points=[];align=left;fontSize=12;image=img/lib/azure2/general/Resource_Groups.svg;labelPosition=right;verticalLabelPosition=middle;verticalAlign=middle;" vertex="1" parent="1">
          <mxGeometry x="2300" y="1141" width="68" height="64" as="geometry" />
        </mxCell>
        <mxCell id="IH5r3bqnqpSmV9wZhY5T-19" style="edgeStyle=orthogonalEdgeStyle;rounded=0;orthogonalLoop=1;jettySize=auto;html=1;" edge="1" parent="1" source="IH5r3bqnqpSmV9wZhY5T-13">
          <mxGeometry relative="1" as="geometry">
            <mxPoint x="2364" y="1347" as="targetPoint" />
          </mxGeometry>
        </mxCell>
        <mxCell id="IH5r3bqnqpSmV9wZhY5T-20" value="" style="edgeStyle=orthogonalEdgeStyle;rounded=0;orthogonalLoop=1;jettySize=auto;html=1;" edge="1" parent="1" source="IH5r3bqnqpSmV9wZhY5T-21" target="IH5r3bqnqpSmV9wZhY5T-22">
          <mxGeometry relative="1" as="geometry">
            <mxPoint x="2497.5" y="1275" as="targetPoint" />
            <Array as="points">
              <mxPoint x="2400" y="1363" />
            </Array>
          </mxGeometry>
        </mxCell>
        <mxCell id="IH5r3bqnqpSmV9wZhY5T-21" value="saeunprdlzavd02fnc" style="image;aspect=fixed;html=1;points=[];align=center;fontSize=12;image=img/lib/azure2/storage/Storage_Accounts.svg;" vertex="1" parent="1">
          <mxGeometry x="2360" y="1249" width="65" height="52" as="geometry" />
        </mxCell>
        <mxCell id="IH5r3bqnqpSmV9wZhY5T-22" value="pdms-data" style="image;aspect=fixed;html=1;points=[];align=center;fontSize=12;image=img/lib/azure2/storage/Azure_Fileshare.svg;" vertex="1" parent="1">
          <mxGeometry x="2440" y="1329" width="68" height="68" as="geometry" />
        </mxCell>
        <mxCell id="IH5r3bqnqpSmV9wZhY5T-23" value="" style="rounded=1;whiteSpace=wrap;html=1;dashed=1;fillColor=none;" vertex="1" parent="1">
          <mxGeometry x="2280" y="1559" width="330" height="241" as="geometry" />
        </mxCell>
        <mxCell id="IH5r3bqnqpSmV9wZhY5T-24" value="RG-EUN-PRD-Backup" style="image;aspect=fixed;html=1;points=[];align=left;fontSize=12;image=img/lib/azure2/general/Resource_Groups.svg;labelPosition=right;verticalLabelPosition=middle;verticalAlign=middle;" vertex="1" parent="1">
          <mxGeometry x="2300" y="1520" width="68" height="64" as="geometry" />
        </mxCell>
        <mxCell id="IH5r3bqnqpSmV9wZhY5T-25" value="RSV-EUN-PRD-Backup-01" style="image;sketch=0;aspect=fixed;html=1;points=[];align=left;fontSize=12;image=img/lib/mscae/Backup.svg;labelPosition=right;verticalLabelPosition=middle;verticalAlign=middle;" vertex="1" parent="1">
          <mxGeometry x="2340" y="1658.5" width="50" height="42" as="geometry" />
        </mxCell>
        <mxCell id="IH5r3bqnqpSmV9wZhY5T-26" value="" style="rounded=1;whiteSpace=wrap;html=1;dashed=1;fillColor=none;" vertex="1" parent="1">
          <mxGeometry x="2270" y="1933" width="330" height="331" as="geometry" />
        </mxCell>
        <mxCell id="IH5r3bqnqpSmV9wZhY5T-27" value="RG-INC-PRD-App-Networking" style="image;aspect=fixed;html=1;points=[];align=left;fontSize=12;image=img/lib/azure2/general/Resource_Groups.svg;labelPosition=right;verticalLabelPosition=middle;verticalAlign=middle;" vertex="1" parent="1">
          <mxGeometry x="2290" y="1894" width="68" height="64" as="geometry" />
        </mxCell>
        <mxCell id="IH5r3bqnqpSmV9wZhY5T-28" value="VN-INC-PRD-EngApp-01" style="image;aspect=fixed;html=1;points=[];align=left;fontSize=12;image=img/lib/azure2/networking/Virtual_Networks.svg;labelPosition=right;verticalLabelPosition=middle;verticalAlign=middle;" vertex="1" parent="1">
          <mxGeometry x="2330" y="1984" width="67" height="40" as="geometry" />
        </mxCell>
        <mxCell id="IH5r3bqnqpSmV9wZhY5T-29" value="RT-INC-PRD-EngApp-01" style="image;aspect=fixed;html=1;points=[];align=left;fontSize=12;image=img/lib/azure2/networking/Route_Tables.svg;labelPosition=right;verticalLabelPosition=middle;verticalAlign=middle;" vertex="1" parent="1">
          <mxGeometry x="2332.5" y="2052" width="64" height="62" as="geometry" />
        </mxCell>
        <mxCell id="IH5r3bqnqpSmV9wZhY5T-30" value="privatelink.file.core.windows.net" style="image;aspect=fixed;html=1;points=[];align=left;fontSize=12;image=img/lib/azure2/networking/DNS_Zones.svg;labelPosition=right;verticalLabelPosition=middle;verticalAlign=middle;" vertex="1" parent="1">
          <mxGeometry x="2332.5" y="2144" width="64" height="64" as="geometry" />
        </mxCell>
        <mxCell id="IH5r3bqnqpSmV9wZhY5T-31" value="" style="rounded=1;whiteSpace=wrap;html=1;dashed=1;fillColor=none;" vertex="1" parent="1">
          <mxGeometry x="2650" y="1929" width="330" height="241" as="geometry" />
        </mxCell>
        <mxCell id="IH5r3bqnqpSmV9wZhY5T-32" value="RG-INC-PRD-Backup" style="image;aspect=fixed;html=1;points=[];align=left;fontSize=12;image=img/lib/azure2/general/Resource_Groups.svg;labelPosition=right;verticalLabelPosition=middle;verticalAlign=middle;" vertex="1" parent="1">
          <mxGeometry x="2670" y="1890" width="68" height="64" as="geometry" />
        </mxCell>
        <mxCell id="IH5r3bqnqpSmV9wZhY5T-33" value="RSV-INC-PRD-Backup-01" style="image;sketch=0;aspect=fixed;html=1;points=[];align=left;fontSize=12;image=img/lib/mscae/Backup.svg;labelPosition=right;verticalLabelPosition=middle;verticalAlign=middle;" vertex="1" parent="1">
          <mxGeometry x="2710" y="2028.5" width="50" height="42" as="geometry" />
        </mxCell>
        <mxCell id="IH5r3bqnqpSmV9wZhY5T-34" value="" style="rounded=1;whiteSpace=wrap;html=1;dashed=1;fillColor=none;" vertex="1" parent="1">
          <mxGeometry x="1900" y="1931.5" width="330" height="241" as="geometry" />
        </mxCell>
        <mxCell id="IH5r3bqnqpSmV9wZhY5T-35" value="RG-INC-PRD-EngApp-01" style="image;aspect=fixed;html=1;points=[];align=left;fontSize=12;image=img/lib/azure2/general/Resource_Groups.svg;labelPosition=right;verticalLabelPosition=middle;verticalAlign=middle;" vertex="1" parent="1">
          <mxGeometry x="1920" y="1892.5" width="68" height="64" as="geometry" />
        </mxCell>
        <mxCell id="IH5r3bqnqpSmV9wZhY5T-36" value="APP001PRDINCAZR" style="image;aspect=fixed;html=1;points=[];align=left;fontSize=12;image=img/lib/azure2/compute/Virtual_Machine.svg;labelPosition=right;verticalLabelPosition=middle;verticalAlign=middle;" vertex="1" parent="1">
          <mxGeometry x="1950" y="1984.5" width="69" height="64" as="geometry" />
        </mxCell>
        <mxCell id="IH5r3bqnqpSmV9wZhY5T-37" value="AZ-E3D-Batch-AppGroup" style="image;aspect=fixed;html=1;points=[];align=left;fontSize=12;image=img/lib/azure2/intune/Client_Apps.svg;labelPosition=right;verticalLabelPosition=middle;verticalAlign=middle;" vertex="1" parent="1">
          <mxGeometry x="1000" y="252" width="68" height="68" as="geometry" />
        </mxCell>
        <mxCell id="IH5r3bqnqpSmV9wZhY5T-38" style="edgeStyle=orthogonalEdgeStyle;rounded=0;orthogonalLoop=1;jettySize=auto;html=1;entryX=-0.015;entryY=0.556;entryDx=0;entryDy=0;entryPerimeter=0;" edge="1" parent="1" source="Fz4BXCE3DmNM-nRFNMD0-3" target="IH5r3bqnqpSmV9wZhY5T-37">
          <mxGeometry relative="1" as="geometry" />
        </mxCell>
        <mxCell id="IH5r3bqnqpSmV9wZhY5T-39" value="AZ-E3D-LFM-WVD-AppGroup" style="image;aspect=fixed;html=1;points=[];align=left;fontSize=12;image=img/lib/azure2/intune/Client_Apps.svg;labelPosition=right;verticalLabelPosition=middle;verticalAlign=middle;" vertex="1" parent="1">
          <mxGeometry x="1000" y="344" width="68" height="68" as="geometry" />
        </mxCell>
        <mxCell id="IH5r3bqnqpSmV9wZhY5T-40" style="edgeStyle=orthogonalEdgeStyle;rounded=0;orthogonalLoop=1;jettySize=auto;html=1;entryX=-0.015;entryY=0.556;entryDx=0;entryDy=0;entryPerimeter=0;" edge="1" parent="1" target="IH5r3bqnqpSmV9wZhY5T-39">
          <mxGeometry relative="1" as="geometry">
            <mxPoint x="848" y="382" as="sourcePoint" />
          </mxGeometry>
        </mxCell>
        <mxCell id="IH5r3bqnqpSmV9wZhY5T-41" value="AZ-E3D-TST-Batch-AppGroup" style="image;aspect=fixed;html=1;points=[];align=left;fontSize=12;image=img/lib/azure2/intune/Client_Apps.svg;labelPosition=right;verticalLabelPosition=middle;verticalAlign=middle;" vertex="1" parent="1">
          <mxGeometry x="1000" y="432" width="68" height="68" as="geometry" />
        </mxCell>
        <mxCell id="IH5r3bqnqpSmV9wZhY5T-42" style="edgeStyle=orthogonalEdgeStyle;rounded=0;orthogonalLoop=1;jettySize=auto;html=1;entryX=-0.015;entryY=0.556;entryDx=0;entryDy=0;entryPerimeter=0;" edge="1" parent="1" target="IH5r3bqnqpSmV9wZhY5T-41">
          <mxGeometry relative="1" as="geometry">
            <mxPoint x="848" y="470" as="sourcePoint" />
          </mxGeometry>
        </mxCell>
        <mxCell id="IH5r3bqnqpSmV9wZhY5T-43" value="AZ-NAVIS-AVD-AppGroup" style="image;aspect=fixed;html=1;points=[];align=left;fontSize=12;image=img/lib/azure2/intune/Client_Apps.svg;labelPosition=right;verticalLabelPosition=middle;verticalAlign=middle;" vertex="1" parent="1">
          <mxGeometry x="1002" y="522" width="68" height="68" as="geometry" />
        </mxCell>
        <mxCell id="IH5r3bqnqpSmV9wZhY5T-44" style="edgeStyle=orthogonalEdgeStyle;rounded=0;orthogonalLoop=1;jettySize=auto;html=1;entryX=-0.015;entryY=0.556;entryDx=0;entryDy=0;entryPerimeter=0;" edge="1" parent="1" target="IH5r3bqnqpSmV9wZhY5T-43">
          <mxGeometry relative="1" as="geometry">
            <mxPoint x="850" y="560" as="sourcePoint" />
          </mxGeometry>
        </mxCell>
        <mxCell id="IH5r3bqnqpSmV9wZhY5T-45" value="AZ-PDMS-HF48-Batch1-AppGroup" style="image;aspect=fixed;html=1;points=[];align=left;fontSize=12;image=img/lib/azure2/intune/Client_Apps.svg;labelPosition=right;verticalLabelPosition=middle;verticalAlign=middle;" vertex="1" parent="1">
          <mxGeometry x="1002" y="616" width="68" height="68" as="geometry" />
        </mxCell>
        <mxCell id="IH5r3bqnqpSmV9wZhY5T-46" style="edgeStyle=orthogonalEdgeStyle;rounded=0;orthogonalLoop=1;jettySize=auto;html=1;entryX=-0.015;entryY=0.556;entryDx=0;entryDy=0;entryPerimeter=0;" edge="1" parent="1" target="IH5r3bqnqpSmV9wZhY5T-45">
          <mxGeometry relative="1" as="geometry">
            <mxPoint x="850" y="654" as="sourcePoint" />
          </mxGeometry>
        </mxCell>
        <mxCell id="IH5r3bqnqpSmV9wZhY5T-47" value="AZ-S3D-2019-AppGroup" style="image;aspect=fixed;html=1;points=[];align=left;fontSize=12;image=img/lib/azure2/intune/Client_Apps.svg;labelPosition=right;verticalLabelPosition=middle;verticalAlign=middle;" vertex="1" parent="1">
          <mxGeometry x="1002" y="710" width="68" height="68" as="geometry" />
        </mxCell>
        <mxCell id="IH5r3bqnqpSmV9wZhY5T-48" style="edgeStyle=orthogonalEdgeStyle;rounded=0;orthogonalLoop=1;jettySize=auto;html=1;entryX=-0.015;entryY=0.556;entryDx=0;entryDy=0;entryPerimeter=0;" edge="1" parent="1" target="IH5r3bqnqpSmV9wZhY5T-47">
          <mxGeometry relative="1" as="geometry">
            <mxPoint x="850" y="748" as="sourcePoint" />
          </mxGeometry>
        </mxCell>
        <mxCell id="IH5r3bqnqpSmV9wZhY5T-49" value="AZ-S3D-HF60-WVD-AppGroup" style="image;aspect=fixed;html=1;points=[];align=left;fontSize=12;image=img/lib/azure2/intune/Client_Apps.svg;labelPosition=right;verticalLabelPosition=middle;verticalAlign=middle;" vertex="1" parent="1">
          <mxGeometry x="1002" y="796" width="68" height="68" as="geometry" />
        </mxCell>
        <mxCell id="IH5r3bqnqpSmV9wZhY5T-50" style="edgeStyle=orthogonalEdgeStyle;rounded=0;orthogonalLoop=1;jettySize=auto;html=1;entryX=-0.015;entryY=0.556;entryDx=0;entryDy=0;entryPerimeter=0;" edge="1" parent="1" target="IH5r3bqnqpSmV9wZhY5T-49">
          <mxGeometry relative="1" as="geometry">
            <mxPoint x="850" y="834" as="sourcePoint" />
          </mxGeometry>
        </mxCell>
        <mxCell id="IH5r3bqnqpSmV9wZhY5T-51" value="AZ-S3D-PDS-WVD-AppGroup" style="image;aspect=fixed;html=1;points=[];align=left;fontSize=12;image=img/lib/azure2/intune/Client_Apps.svg;labelPosition=right;verticalLabelPosition=middle;verticalAlign=middle;" vertex="1" parent="1">
          <mxGeometry x="1592" y="252" width="68" height="68" as="geometry" />
        </mxCell>
        <mxCell id="IH5r3bqnqpSmV9wZhY5T-55" style="edgeStyle=orthogonalEdgeStyle;rounded=0;orthogonalLoop=1;jettySize=auto;html=1;" edge="1" parent="1" target="IH5r3bqnqpSmV9wZhY5T-56">
          <mxGeometry relative="1" as="geometry">
            <mxPoint x="1408" y="380" as="sourcePoint" />
          </mxGeometry>
        </mxCell>
        <mxCell id="IH5r3bqnqpSmV9wZhY5T-56" value="AZ-S3D-V13-2-WVD-AppGroup" style="image;aspect=fixed;html=1;points=[];align=left;fontSize=12;image=img/lib/azure2/intune/Client_Apps.svg;labelPosition=right;verticalLabelPosition=middle;verticalAlign=middle;" vertex="1" parent="1">
          <mxGeometry x="1592" y="346" width="68" height="68" as="geometry" />
        </mxCell>
        <mxCell id="IH5r3bqnqpSmV9wZhY5T-57" style="edgeStyle=orthogonalEdgeStyle;rounded=0;orthogonalLoop=1;jettySize=auto;html=1;" edge="1" parent="1" target="IH5r3bqnqpSmV9wZhY5T-58">
          <mxGeometry relative="1" as="geometry">
            <mxPoint x="1408" y="470" as="sourcePoint" />
          </mxGeometry>
        </mxCell>
        <mxCell id="IH5r3bqnqpSmV9wZhY5T-58" value="HP-SAS-PRD-Plant3D01-WVD-AppGroup" style="image;aspect=fixed;html=1;points=[];align=left;fontSize=12;image=img/lib/azure2/intune/Client_Apps.svg;labelPosition=right;verticalLabelPosition=middle;verticalAlign=middle;" vertex="1" parent="1">
          <mxGeometry x="1592" y="436" width="68" height="68" as="geometry" />
        </mxCell>
        <mxCell id="IH5r3bqnqpSmV9wZhY5T-59" style="edgeStyle=orthogonalEdgeStyle;rounded=0;orthogonalLoop=1;jettySize=auto;html=1;" edge="1" parent="1" target="IH5r3bqnqpSmV9wZhY5T-60">
          <mxGeometry relative="1" as="geometry">
            <mxPoint x="1408" y="556" as="sourcePoint" />
          </mxGeometry>
        </mxCell>
        <mxCell id="IH5r3bqnqpSmV9wZhY5T-60" value="HP-SAS-PRD-Plant3D02-WVD-AppGroup" style="image;aspect=fixed;html=1;points=[];align=left;fontSize=12;image=img/lib/azure2/intune/Client_Apps.svg;labelPosition=right;verticalLabelPosition=middle;verticalAlign=middle;" vertex="1" parent="1">
          <mxGeometry x="1592" y="522" width="68" height="68" as="geometry" />
        </mxCell>
        <mxCell id="IH5r3bqnqpSmV9wZhY5T-61" style="edgeStyle=orthogonalEdgeStyle;rounded=0;orthogonalLoop=1;jettySize=auto;html=1;" edge="1" parent="1" target="IH5r3bqnqpSmV9wZhY5T-62">
          <mxGeometry relative="1" as="geometry">
            <mxPoint x="1408" y="646" as="sourcePoint" />
          </mxGeometry>
        </mxCell>
        <mxCell id="IH5r3bqnqpSmV9wZhY5T-62" value="HP-SAS-PRD-Plant3D03-WVD-AppGroup" style="image;aspect=fixed;html=1;points=[];align=left;fontSize=12;image=img/lib/azure2/intune/Client_Apps.svg;labelPosition=right;verticalLabelPosition=middle;verticalAlign=middle;" vertex="1" parent="1">
          <mxGeometry x="1592" y="612" width="68" height="68" as="geometry" />
        </mxCell>
        <mxCell id="IH5r3bqnqpSmV9wZhY5T-63" style="edgeStyle=orthogonalEdgeStyle;rounded=0;orthogonalLoop=1;jettySize=auto;html=1;" edge="1" parent="1" target="IH5r3bqnqpSmV9wZhY5T-64">
          <mxGeometry relative="1" as="geometry">
            <mxPoint x="1408" y="736" as="sourcePoint" />
          </mxGeometry>
        </mxCell>
        <mxCell id="IH5r3bqnqpSmV9wZhY5T-64" value="HP-SAS-PRD-Plant3D04-WVD-AppGroup" style="image;aspect=fixed;html=1;points=[];align=left;fontSize=12;image=img/lib/azure2/intune/Client_Apps.svg;labelPosition=right;verticalLabelPosition=middle;verticalAlign=middle;" vertex="1" parent="1">
          <mxGeometry x="1592" y="702" width="68" height="68" as="geometry" />
        </mxCell>
        <mxCell id="IH5r3bqnqpSmV9wZhY5T-65" style="edgeStyle=orthogonalEdgeStyle;rounded=0;orthogonalLoop=1;jettySize=auto;html=1;" edge="1" parent="1" target="IH5r3bqnqpSmV9wZhY5T-66">
          <mxGeometry relative="1" as="geometry">
            <mxPoint x="1408" y="826" as="sourcePoint" />
          </mxGeometry>
        </mxCell>
        <mxCell id="IH5r3bqnqpSmV9wZhY5T-66" value="HP-SAS-PRD-Plant3D05-WVD-AppGroup" style="image;aspect=fixed;html=1;points=[];align=left;fontSize=12;image=img/lib/azure2/intune/Client_Apps.svg;labelPosition=right;verticalLabelPosition=middle;verticalAlign=middle;" vertex="1" parent="1">
          <mxGeometry x="1592" y="792" width="68" height="68" as="geometry" />
        </mxCell>
        <mxCell id="HpObJi3BH0o9zJ9XUHhQ-1" value="" style="rounded=1;whiteSpace=wrap;html=1;dashed=1;fillColor=none;" vertex="1" parent="1">
          <mxGeometry x="2820" y="132" width="300" height="268" as="geometry" />
        </mxCell>
        <mxCell id="HpObJi3BH0o9zJ9XUHhQ-2" value="RG-SAS-PRD-ENGGAPP" style="image;aspect=fixed;html=1;points=[];align=left;fontSize=12;image=img/lib/azure2/general/Resource_Groups.svg;labelPosition=right;verticalLabelPosition=middle;verticalAlign=middle;" vertex="1" parent="1">
          <mxGeometry x="2840" y="91" width="68" height="64" as="geometry" />
        </mxCell>
        <mxCell id="HpObJi3BH0o9zJ9XUHhQ-3" value="" style="edgeStyle=orthogonalEdgeStyle;rounded=0;orthogonalLoop=1;jettySize=auto;html=1;" edge="1" parent="1" source="HpObJi3BH0o9zJ9XUHhQ-4" target="HpObJi3BH0o9zJ9XUHhQ-5">
          <mxGeometry relative="1" as="geometry">
            <mxPoint x="3017.5" y="196" as="targetPoint" />
            <Array as="points">
              <mxPoint x="2920" y="284" />
            </Array>
          </mxGeometry>
        </mxCell>
        <mxCell id="HpObJi3BH0o9zJ9XUHhQ-4" value="sa02vdisasazr" style="image;aspect=fixed;html=1;points=[];align=center;fontSize=12;image=img/lib/azure2/storage/Storage_Accounts.svg;" vertex="1" parent="1">
          <mxGeometry x="2880" y="170" width="65" height="52" as="geometry" />
        </mxCell>
        <mxCell id="HpObJi3BH0o9zJ9XUHhQ-5" value="pdms-data" style="image;aspect=fixed;html=1;points=[];align=center;fontSize=12;image=img/lib/azure2/storage/Azure_Fileshare.svg;" vertex="1" parent="1">
          <mxGeometry x="2960" y="250" width="68" height="68" as="geometry" />
        </mxCell>
      </root>
    </mxGraphModel>
  </diagram>
  <diagram id="TJYPH7IQ5fmpkiByNfaa" name="Network structure">
    <mxGraphModel dx="2537" dy="940" grid="1" gridSize="10" guides="1" tooltips="1" connect="1" arrows="1" fold="1" page="1" pageScale="1" pageWidth="850" pageHeight="1100" math="0" shadow="0">
      <root>
        <mxCell id="0" />
        <mxCell id="1" parent="0" />
        <mxCell id="A5kOPvEqb_d3nD17Dlqo-5" value="" style="rounded=0;whiteSpace=wrap;html=1;fillColor=#E6F2FB;strokeColor=none;" vertex="1" parent="1">
          <mxGeometry x="3626.5" y="1680" width="590" height="360" as="geometry" />
        </mxCell>
        <mxCell id="A5kOPvEqb_d3nD17Dlqo-4" value="SN-App-001" style="rounded=1;whiteSpace=wrap;html=1;dashed=1;fillColor=none;labelPosition=center;verticalLabelPosition=top;align=center;verticalAlign=bottom;" vertex="1" parent="1">
          <mxGeometry x="3693.5" y="1740" width="453" height="226" as="geometry" />
        </mxCell>
        <mxCell id="h72w_ylcQlOeMJLz0z-X-7" value="" style="rounded=0;whiteSpace=wrap;html=1;fillColor=#E6F2FB;strokeColor=none;" vertex="1" parent="1">
          <mxGeometry x="2872" y="2129" width="380" height="270" as="geometry" />
        </mxCell>
        <mxCell id="9XVGheTuhWzWQ7pgWtbg-1" value="SN-Application-01" style="rounded=1;whiteSpace=wrap;html=1;dashed=1;fillColor=none;labelPosition=center;verticalLabelPosition=top;align=center;verticalAlign=bottom;" vertex="1" parent="1">
          <mxGeometry x="2920" y="2159" width="295" height="190" as="geometry" />
        </mxCell>
        <mxCell id="ixNkMtGWHzpU94Xd72XO-5" value="" style="rounded=0;whiteSpace=wrap;html=1;fillColor=#E6F2FB;strokeColor=none;" vertex="1" parent="1">
          <mxGeometry x="3310" y="2130" width="380" height="370" as="geometry" />
        </mxCell>
        <mxCell id="EYOgIwR7hIW-pRk0C--r-6" value="" style="rounded=0;whiteSpace=wrap;html=1;fillColor=#E6F2FB;strokeColor=none;" vertex="1" parent="1">
          <mxGeometry x="3804" y="1160" width="582.5" height="400" as="geometry" />
        </mxCell>
        <mxCell id="_QWKfaYP4F_C39oyonQV-1" value="" style="rounded=0;whiteSpace=wrap;html=1;fillColor=#E6F2FB;strokeColor=none;" vertex="1" parent="1">
          <mxGeometry x="920" y="1160" width="1870" height="940" as="geometry" />
        </mxCell>
        <mxCell id="Y0t7DYp3o1onZx3chxgv-1" value="&lt;b&gt;VN-SAS&lt;/b&gt;" style="image;aspect=fixed;html=1;points=[];align=left;fontSize=12;image=img/lib/azure2/networking/Virtual_Networks.svg;labelPosition=right;verticalLabelPosition=middle;verticalAlign=middle;" vertex="1" parent="1">
          <mxGeometry x="2680" y="1130" width="67" height="40" as="geometry" />
        </mxCell>
        <mxCell id="Y0t7DYp3o1onZx3chxgv-2" value="" style="rounded=0;whiteSpace=wrap;html=1;fillColor=#E6F2FB;strokeColor=none;" vertex="1" parent="1">
          <mxGeometry x="2880" y="1160" width="840" height="410" as="geometry" />
        </mxCell>
        <mxCell id="Y0t7DYp3o1onZx3chxgv-3" value="&lt;b&gt;VN-EUN&lt;/b&gt;" style="image;aspect=fixed;html=1;points=[];align=left;fontSize=12;image=img/lib/azure2/networking/Virtual_Networks.svg;labelPosition=right;verticalLabelPosition=middle;verticalAlign=middle;" vertex="1" parent="1">
          <mxGeometry x="2885" y="1130" width="67" height="40" as="geometry" />
        </mxCell>
        <mxCell id="F9b7wbA0G8LodQH_zVjR-1" value="" style="rounded=0;whiteSpace=wrap;html=1;fillColor=#E6F2FB;strokeColor=none;" vertex="1" parent="1">
          <mxGeometry x="2870" y="1680" width="670" height="370" as="geometry" />
        </mxCell>
        <mxCell id="F9b7wbA0G8LodQH_zVjR-2" value="&lt;b&gt;VN-INC&lt;/b&gt;" style="image;aspect=fixed;html=1;points=[];align=left;fontSize=12;image=img/lib/azure2/networking/Virtual_Networks.svg;labelPosition=right;verticalLabelPosition=middle;verticalAlign=middle;" vertex="1" parent="1">
          <mxGeometry x="2870" y="1650" width="67" height="40" as="geometry" />
        </mxCell>
        <mxCell id="kKv0wWnFs5dkgS32MKyA-1" value="AzureFirewallSubnet" style="rounded=1;whiteSpace=wrap;html=1;dashed=1;fillColor=none;labelPosition=center;verticalLabelPosition=top;align=center;verticalAlign=bottom;" vertex="1" parent="1">
          <mxGeometry x="2427.5" y="1220" width="295" height="280" as="geometry" />
        </mxCell>
        <mxCell id="kKv0wWnFs5dkgS32MKyA-2" value="FW-SAS-PRD-AZR-01" style="image;aspect=fixed;html=1;points=[];align=center;fontSize=12;image=img/lib/azure2/networking/Firewalls.svg;" vertex="1" parent="1">
          <mxGeometry x="2539.5" y="1310" width="71" height="60" as="geometry" />
        </mxCell>
        <mxCell id="kKv0wWnFs5dkgS32MKyA-3" value="AzureFirewallSubnet" style="rounded=1;whiteSpace=wrap;html=1;dashed=1;fillColor=none;labelPosition=center;verticalLabelPosition=top;align=center;verticalAlign=bottom;" vertex="1" parent="1">
          <mxGeometry x="2952" y="1220" width="295" height="280" as="geometry" />
        </mxCell>
        <mxCell id="kKv0wWnFs5dkgS32MKyA-4" value="FW-EUN-PRD-AZR-01" style="image;aspect=fixed;html=1;points=[];align=center;fontSize=12;image=img/lib/azure2/networking/Firewalls.svg;" vertex="1" parent="1">
          <mxGeometry x="3064" y="1310" width="71" height="60" as="geometry" />
        </mxCell>
        <mxCell id="kKv0wWnFs5dkgS32MKyA-5" value="AzureFirewallSubnet" style="rounded=1;whiteSpace=wrap;html=1;dashed=1;fillColor=none;labelPosition=center;verticalLabelPosition=top;align=center;verticalAlign=bottom;" vertex="1" parent="1">
          <mxGeometry x="2942" y="1740" width="295" height="280" as="geometry" />
        </mxCell>
        <mxCell id="kKv0wWnFs5dkgS32MKyA-6" value="FW-INC-PRD-AZR-01" style="image;aspect=fixed;html=1;points=[];align=center;fontSize=12;image=img/lib/azure2/networking/Firewalls.svg;" vertex="1" parent="1">
          <mxGeometry x="3054" y="1830" width="71" height="60" as="geometry" />
        </mxCell>
        <mxCell id="0EfuuOgFiug40dp6T_wv-1" value="VDI-Subnet" style="rounded=1;whiteSpace=wrap;html=1;dashed=1;fillColor=none;labelPosition=center;verticalLabelPosition=top;align=center;verticalAlign=bottom;" vertex="1" parent="1">
          <mxGeometry x="1050" y="1220" width="1310" height="540" as="geometry" />
        </mxCell>
        <mxCell id="0EfuuOgFiug40dp6T_wv-2" value="AZ-MLM-TST-WVD&lt;br&gt;Hosts: 2&lt;br&gt;Size: E4s_v3" style="image;aspect=fixed;html=1;points=[];align=left;fontSize=12;image=img/lib/azure2/compute/VM_Scale_Sets.svg;labelPosition=right;verticalLabelPosition=middle;verticalAlign=middle;" vertex="1" parent="1">
          <mxGeometry x="1110" y="1270" width="68" height="68" as="geometry" />
        </mxCell>
        <mxCell id="0EfuuOgFiug40dp6T_wv-3" value="AZ-PDMS-HF48-Batch&lt;br&gt;Hosts: 1&lt;br&gt;Size: D4_v2_Promo" style="image;aspect=fixed;html=1;points=[];align=left;fontSize=12;image=img/lib/azure2/compute/VM_Scale_Sets.svg;labelPosition=right;verticalLabelPosition=middle;verticalAlign=middle;" vertex="1" parent="1">
          <mxGeometry x="1110" y="1360" width="68" height="68" as="geometry" />
        </mxCell>
        <mxCell id="0EfuuOgFiug40dp6T_wv-4" value="AZ-PDMS-HF48-WVD&lt;br&gt;Hosts: 12&lt;br&gt;Size: NV12s_v3" style="image;aspect=fixed;html=1;points=[];align=left;fontSize=12;image=img/lib/azure2/compute/VM_Scale_Sets.svg;labelPosition=right;verticalLabelPosition=middle;verticalAlign=middle;" vertex="1" parent="1">
          <mxGeometry x="1110" y="1450" width="68" height="68" as="geometry" />
        </mxCell>
        <mxCell id="0EfuuOgFiug40dp6T_wv-5" value="AZ-PDMS-ME-Batch&lt;br&gt;Hosts: 1&lt;br&gt;Size: A4m_v2" style="image;aspect=fixed;html=1;points=[];align=left;fontSize=12;image=img/lib/azure2/compute/VM_Scale_Sets.svg;labelPosition=right;verticalLabelPosition=middle;verticalAlign=middle;" vertex="1" parent="1">
          <mxGeometry x="1110" y="1540" width="68" height="68" as="geometry" />
        </mxCell>
        <mxCell id="0EfuuOgFiug40dp6T_wv-6" value="AZ-PDMS-ME-WVD&lt;br&gt;Hosts: 3&lt;br&gt;Size: NV12s_v3" style="image;aspect=fixed;html=1;points=[];align=left;fontSize=12;image=img/lib/azure2/compute/VM_Scale_Sets.svg;labelPosition=right;verticalLabelPosition=middle;verticalAlign=middle;" vertex="1" parent="1">
          <mxGeometry x="1110" y="1628" width="68" height="68" as="geometry" />
        </mxCell>
        <mxCell id="0EfuuOgFiug40dp6T_wv-7" value="AZ-PDMS-NPCC-WVD&lt;br&gt;Hosts: 6&lt;br&gt;Size: NV18ads_A10_v5" style="image;aspect=fixed;html=1;points=[];align=left;fontSize=12;image=img/lib/azure2/compute/VM_Scale_Sets.svg;labelPosition=right;verticalLabelPosition=middle;verticalAlign=middle;" vertex="1" parent="1">
          <mxGeometry x="1337" y="1270" width="68" height="68" as="geometry" />
        </mxCell>
        <mxCell id="0EfuuOgFiug40dp6T_wv-8" value="AZ-S3D-2018-HF72-WVD&lt;br&gt;Hosts: 1&lt;br&gt;Size: NV12s_v3" style="image;aspect=fixed;html=1;points=[];align=left;fontSize=12;image=img/lib/azure2/compute/VM_Scale_Sets.svg;labelPosition=right;verticalLabelPosition=middle;verticalAlign=middle;" vertex="1" parent="1">
          <mxGeometry x="1337" y="1360" width="68" height="68" as="geometry" />
        </mxCell>
        <mxCell id="0EfuuOgFiug40dp6T_wv-9" value="AZ-S3D-HF52-WVD&lt;br&gt;Hosts: 2&lt;br&gt;Size: NV12s_v3" style="image;aspect=fixed;html=1;points=[];align=left;fontSize=12;image=img/lib/azure2/compute/VM_Scale_Sets.svg;labelPosition=right;verticalLabelPosition=middle;verticalAlign=middle;" vertex="1" parent="1">
          <mxGeometry x="1337" y="1540" width="68" height="68" as="geometry" />
        </mxCell>
        <mxCell id="0EfuuOgFiug40dp6T_wv-10" value="AZ-S3D-HF60-Batch&lt;br&gt;Hosts: 1&lt;br&gt;Size: A4m_v2" style="image;aspect=fixed;html=1;points=[];align=left;fontSize=12;image=img/lib/azure2/compute/VM_Scale_Sets.svg;labelPosition=right;verticalLabelPosition=middle;verticalAlign=middle;" vertex="1" parent="1">
          <mxGeometry x="1337" y="1628" width="68" height="68" as="geometry" />
        </mxCell>
        <mxCell id="0EfuuOgFiug40dp6T_wv-11" value="AZ-S3D-HF52-Batch&lt;br&gt;Hosts: 1&lt;br&gt;Size: B4ms" style="image;aspect=fixed;html=1;points=[];align=left;fontSize=12;image=img/lib/azure2/compute/VM_Scale_Sets.svg;labelPosition=right;verticalLabelPosition=middle;verticalAlign=middle;" vertex="1" parent="1">
          <mxGeometry x="1337" y="1452" width="68" height="68" as="geometry" />
        </mxCell>
        <mxCell id="0EfuuOgFiug40dp6T_wv-12" value="AZ-E3D-Batch&lt;br&gt;Hosts: 1&lt;br&gt;Size: D4s_v3" style="image;aspect=fixed;html=1;points=[];align=left;fontSize=12;image=img/lib/azure2/compute/VM_Scale_Sets.svg;labelPosition=right;verticalLabelPosition=middle;verticalAlign=middle;" vertex="1" parent="1">
          <mxGeometry x="1600" y="1270" width="68" height="68" as="geometry" />
        </mxCell>
        <mxCell id="0EfuuOgFiug40dp6T_wv-13" value="AZ-E3D-LFM-WVD&lt;br&gt;Hosts: 1&lt;br&gt;Size: NV18ads_A10_v5" style="image;aspect=fixed;html=1;points=[];align=left;fontSize=12;image=img/lib/azure2/compute/VM_Scale_Sets.svg;labelPosition=right;verticalLabelPosition=middle;verticalAlign=middle;" vertex="1" parent="1">
          <mxGeometry x="1600" y="1360" width="68" height="68" as="geometry" />
        </mxCell>
        <mxCell id="0EfuuOgFiug40dp6T_wv-14" value="AZ-E3D-TST-Batch&lt;br&gt;Hosts: 2&lt;br&gt;Size: NV18ads_A10_v5" style="image;aspect=fixed;html=1;points=[];align=left;fontSize=12;image=img/lib/azure2/compute/VM_Scale_Sets.svg;labelPosition=right;verticalLabelPosition=middle;verticalAlign=middle;" vertex="1" parent="1">
          <mxGeometry x="1600" y="1450" width="68" height="68" as="geometry" />
        </mxCell>
        <mxCell id="0EfuuOgFiug40dp6T_wv-15" value="AZ-NAVIS-AVD&lt;br&gt;Hosts: 1&lt;br&gt;Size: NV12s_v3" style="image;aspect=fixed;html=1;points=[];align=left;fontSize=12;image=img/lib/azure2/compute/VM_Scale_Sets.svg;labelPosition=right;verticalLabelPosition=middle;verticalAlign=middle;" vertex="1" parent="1">
          <mxGeometry x="1600" y="1540" width="68" height="68" as="geometry" />
        </mxCell>
        <mxCell id="0EfuuOgFiug40dp6T_wv-16" value="AZ-PDMS-HF48-Batch1&lt;br&gt;Hosts: 1&lt;br&gt;Size: D2as_v5" style="image;aspect=fixed;html=1;points=[];align=left;fontSize=12;image=img/lib/azure2/compute/VM_Scale_Sets.svg;labelPosition=right;verticalLabelPosition=middle;verticalAlign=middle;" vertex="1" parent="1">
          <mxGeometry x="1600" y="1630" width="68" height="68" as="geometry" />
        </mxCell>
        <mxCell id="0EfuuOgFiug40dp6T_wv-17" value="AZ-S3D-2019&lt;br&gt;Hosts: 3&lt;br&gt;Size: D16a_v4" style="image;aspect=fixed;html=1;points=[];align=left;fontSize=12;image=img/lib/azure2/compute/VM_Scale_Sets.svg;labelPosition=right;verticalLabelPosition=middle;verticalAlign=middle;" vertex="1" parent="1">
          <mxGeometry x="2110" y="1270" width="68" height="68" as="geometry" />
        </mxCell>
        <mxCell id="0EfuuOgFiug40dp6T_wv-18" value="AZ-S3D-HF60-WVD&lt;br&gt;Hosts: 1&lt;br&gt;Size: NV12s_v3" style="image;aspect=fixed;html=1;points=[];align=left;fontSize=12;image=img/lib/azure2/compute/VM_Scale_Sets.svg;labelPosition=right;verticalLabelPosition=middle;verticalAlign=middle;" vertex="1" parent="1">
          <mxGeometry x="2110" y="1360" width="68" height="68" as="geometry" />
        </mxCell>
        <mxCell id="0EfuuOgFiug40dp6T_wv-19" value="AZ-S3D-PDS-WVD&lt;br&gt;Hosts: 1&lt;br&gt;Size: NV12s_v3" style="image;aspect=fixed;html=1;points=[];align=left;fontSize=12;image=img/lib/azure2/compute/VM_Scale_Sets.svg;labelPosition=right;verticalLabelPosition=middle;verticalAlign=middle;" vertex="1" parent="1">
          <mxGeometry x="1830" y="1270" width="68" height="68" as="geometry" />
        </mxCell>
        <mxCell id="0EfuuOgFiug40dp6T_wv-20" value="AZ-S3D-V13-2-WVD&lt;br&gt;Hosts: 1&lt;br&gt;Size: NV12s_v3" style="image;aspect=fixed;html=1;points=[];align=left;fontSize=12;image=img/lib/azure2/compute/VM_Scale_Sets.svg;labelPosition=right;verticalLabelPosition=middle;verticalAlign=middle;" vertex="1" parent="1">
          <mxGeometry x="1830" y="1362" width="68" height="68" as="geometry" />
        </mxCell>
        <mxCell id="0EfuuOgFiug40dp6T_wv-21" value="HP-SAS-PRD-Plant3D01-WVD&lt;br&gt;Hosts: 1&lt;br&gt;Size: NV4as_v4" style="image;aspect=fixed;html=1;points=[];align=left;fontSize=12;image=img/lib/azure2/compute/VM_Scale_Sets.svg;labelPosition=right;verticalLabelPosition=middle;verticalAlign=middle;" vertex="1" parent="1">
          <mxGeometry x="1830" y="1450" width="68" height="68" as="geometry" />
        </mxCell>
        <mxCell id="0EfuuOgFiug40dp6T_wv-22" value="HP-SAS-PRD-Plant3D02-WVD&lt;br&gt;Hosts: 1&lt;br&gt;Size: NV4as_v4" style="image;aspect=fixed;html=1;points=[];align=left;fontSize=12;image=img/lib/azure2/compute/VM_Scale_Sets.svg;labelPosition=right;verticalLabelPosition=middle;verticalAlign=middle;" vertex="1" parent="1">
          <mxGeometry x="1830" y="1538" width="68" height="68" as="geometry" />
        </mxCell>
        <mxCell id="0EfuuOgFiug40dp6T_wv-23" value="HP-SAS-PRD-Plant3D03-WVD&lt;br&gt;Hosts: 1&lt;br&gt;Size: NV4as_v4" style="image;aspect=fixed;html=1;points=[];align=left;fontSize=12;image=img/lib/azure2/compute/VM_Scale_Sets.svg;labelPosition=right;verticalLabelPosition=middle;verticalAlign=middle;" vertex="1" parent="1">
          <mxGeometry x="1830" y="1630" width="68" height="68" as="geometry" />
        </mxCell>
        <mxCell id="0EfuuOgFiug40dp6T_wv-24" value="HP-SAS-PRD-Plant3D04-WVD&lt;br&gt;Hosts: 1&lt;br&gt;Size: NV4as_v4" style="image;aspect=fixed;html=1;points=[];align=left;fontSize=12;image=img/lib/azure2/compute/VM_Scale_Sets.svg;labelPosition=right;verticalLabelPosition=middle;verticalAlign=middle;" vertex="1" parent="1">
          <mxGeometry x="2110" y="1448" width="68" height="68" as="geometry" />
        </mxCell>
        <mxCell id="0EfuuOgFiug40dp6T_wv-25" value="HP-SAS-PRD-Plant3D05-WVD&lt;br&gt;Hosts: 1&lt;br&gt;Size: NV4as_v4" style="image;aspect=fixed;html=1;points=[];align=left;fontSize=12;image=img/lib/azure2/compute/VM_Scale_Sets.svg;labelPosition=right;verticalLabelPosition=middle;verticalAlign=middle;" vertex="1" parent="1">
          <mxGeometry x="2110" y="1538" width="68" height="68" as="geometry" />
        </mxCell>
        <mxCell id="aB4teMLhbamkR6GLVPWy-1" value="Subnet-ThaiOil" style="rounded=1;whiteSpace=wrap;html=1;dashed=1;fillColor=none;labelPosition=center;verticalLabelPosition=top;align=center;verticalAlign=bottom;" vertex="1" parent="1">
          <mxGeometry x="1570" y="1800" width="790" height="240" as="geometry" />
        </mxCell>
        <mxCell id="aB4teMLhbamkR6GLVPWy-2" value="APP116PRDSASAZR" style="image;aspect=fixed;html=1;points=[];align=left;fontSize=12;image=img/lib/azure2/compute/Virtual_Machine.svg;labelPosition=right;verticalLabelPosition=middle;verticalAlign=middle;" vertex="1" parent="1">
          <mxGeometry x="1610" y="1840" width="69" height="64" as="geometry" />
        </mxCell>
        <mxCell id="aB4teMLhbamkR6GLVPWy-3" value="APP117PRDSASAZR" style="image;aspect=fixed;html=1;points=[];align=left;fontSize=12;image=img/lib/azure2/compute/Virtual_Machine.svg;labelPosition=right;verticalLabelPosition=middle;verticalAlign=middle;" vertex="1" parent="1">
          <mxGeometry x="1609" y="1930" width="69" height="64" as="geometry" />
        </mxCell>
        <mxCell id="aB4teMLhbamkR6GLVPWy-4" value="APP104PRDSASAZR" style="image;aspect=fixed;html=1;points=[];align=left;fontSize=12;image=img/lib/azure2/compute/Virtual_Machine.svg;labelPosition=right;verticalLabelPosition=middle;verticalAlign=middle;" vertex="1" parent="1">
          <mxGeometry x="1830" y="1840" width="69" height="64" as="geometry" />
        </mxCell>
        <mxCell id="aB4teMLhbamkR6GLVPWy-5" value="APP023PRDSASAZR" style="image;aspect=fixed;html=1;points=[];align=left;fontSize=12;image=img/lib/azure2/compute/Virtual_Machine.svg;labelPosition=right;verticalLabelPosition=middle;verticalAlign=middle;" vertex="1" parent="1">
          <mxGeometry x="1830" y="1930" width="69" height="64" as="geometry" />
        </mxCell>
        <mxCell id="aB4teMLhbamkR6GLVPWy-6" value="DB006PRDSASAZR" style="image;aspect=fixed;html=1;points=[];align=left;fontSize=12;image=img/lib/azure2/compute/Virtual_Machine.svg;labelPosition=right;verticalLabelPosition=middle;verticalAlign=middle;" vertex="1" parent="1">
          <mxGeometry x="2051" y="1840" width="69" height="64" as="geometry" />
        </mxCell>
        <mxCell id="aB4teMLhbamkR6GLVPWy-7" value="DB004PRDSASAZR" style="image;aspect=fixed;html=1;points=[];align=left;fontSize=12;image=img/lib/azure2/compute/Virtual_Machine.svg;labelPosition=right;verticalLabelPosition=middle;verticalAlign=middle;" vertex="1" parent="1">
          <mxGeometry x="2051" y="1930" width="69" height="64" as="geometry" />
        </mxCell>
        <mxCell id="yzY7HJRVQ0rHlTh3mzjb-1" value="VDI-Subnet" style="rounded=1;whiteSpace=wrap;html=1;dashed=1;fillColor=none;labelPosition=center;verticalLabelPosition=top;align=center;verticalAlign=bottom;" vertex="1" parent="1">
          <mxGeometry x="3320" y="1219" width="295" height="170" as="geometry" />
        </mxCell>
        <mxCell id="yzY7HJRVQ0rHlTh3mzjb-2" value="AZ-PDMS-ME-TST-EUN&lt;br&gt;Hosts: 1&lt;br&gt;Size: NV12s_v3" style="image;aspect=fixed;html=1;points=[];align=left;fontSize=12;image=img/lib/azure2/compute/VM_Scale_Sets.svg;labelPosition=right;verticalLabelPosition=middle;verticalAlign=middle;" vertex="1" parent="1">
          <mxGeometry x="3365" y="1269" width="68" height="68" as="geometry" />
        </mxCell>
        <mxCell id="MYy2Y7VbFK63FKpbn4Jl-1" value="" style="shape=flexArrow;endArrow=classic;startArrow=classic;html=1;rounded=0;edgeStyle=orthogonalEdgeStyle;exitX=1;exitY=0.378;exitDx=0;exitDy=0;exitPerimeter=0;" edge="1" parent="1" source="_QWKfaYP4F_C39oyonQV-1">
          <mxGeometry width="100" height="100" relative="1" as="geometry">
            <mxPoint x="2790" y="1870" as="sourcePoint" />
            <mxPoint x="2875" y="1514" as="targetPoint" />
          </mxGeometry>
        </mxCell>
        <mxCell id="MYy2Y7VbFK63FKpbn4Jl-4" value="" style="shape=flexArrow;endArrow=classic;startArrow=classic;html=1;rounded=0;edgeStyle=orthogonalEdgeStyle;entryX=0.303;entryY=1.003;entryDx=0;entryDy=0;entryPerimeter=0;exitX=0.395;exitY=-0.008;exitDx=0;exitDy=0;exitPerimeter=0;" edge="1" parent="1" source="F9b7wbA0G8LodQH_zVjR-1" target="Y0t7DYp3o1onZx3chxgv-2">
          <mxGeometry width="100" height="100" relative="1" as="geometry">
            <mxPoint x="3256" y="1920" as="sourcePoint" />
            <mxPoint x="2840" y="1930" as="targetPoint" />
          </mxGeometry>
        </mxCell>
        <mxCell id="EYOgIwR7hIW-pRk0C--r-1" value="VN-EUN-PRD-AVD" style="image;aspect=fixed;html=1;points=[];align=left;fontSize=12;image=img/lib/azure2/networking/Virtual_Networks.svg;labelPosition=right;verticalLabelPosition=middle;verticalAlign=middle;" vertex="1" parent="1">
          <mxGeometry x="3804" y="1130" width="67" height="40" as="geometry" />
        </mxCell>
        <mxCell id="EYOgIwR7hIW-pRk0C--r-3" value="SN-AVD-01" style="rounded=1;whiteSpace=wrap;html=1;dashed=1;fillColor=none;labelPosition=center;verticalLabelPosition=top;align=center;verticalAlign=bottom;" vertex="1" parent="1">
          <mxGeometry x="3874" y="1219" width="432.5" height="280" as="geometry" />
        </mxCell>
        <mxCell id="EYOgIwR7hIW-pRk0C--r-4" value="HP-EUN-PRD-E3D-WVD&lt;br&gt;Hosts: 1&lt;br&gt;Size: NV18ads_A10_v5" style="image;aspect=fixed;html=1;points=[];align=left;fontSize=12;image=img/lib/azure2/compute/VM_Scale_Sets.svg;labelPosition=right;verticalLabelPosition=middle;verticalAlign=middle;" vertex="1" parent="1">
          <mxGeometry x="3914" y="1280" width="68" height="68" as="geometry" />
        </mxCell>
        <mxCell id="EYOgIwR7hIW-pRk0C--r-5" value="HP-EUN-PRD-PDMS-WVD&lt;br&gt;Hosts: 2&lt;br&gt;Size: NV18ads_A10_v5" style="image;aspect=fixed;html=1;points=[];align=left;fontSize=12;image=img/lib/azure2/compute/VM_Scale_Sets.svg;labelPosition=right;verticalLabelPosition=middle;verticalAlign=middle;" vertex="1" parent="1">
          <mxGeometry x="3914" y="1370" width="68" height="68" as="geometry" />
        </mxCell>
        <mxCell id="EYOgIwR7hIW-pRk0C--r-7" value="" style="shape=flexArrow;endArrow=classic;startArrow=classic;html=1;rounded=0;edgeStyle=orthogonalEdgeStyle;exitX=1;exitY=0.378;exitDx=0;exitDy=0;exitPerimeter=0;" edge="1" parent="1">
          <mxGeometry width="100" height="100" relative="1" as="geometry">
            <mxPoint x="3717.5" y="1371" as="sourcePoint" />
            <mxPoint x="3802.5" y="1370" as="targetPoint" />
          </mxGeometry>
        </mxCell>
        <mxCell id="ixNkMtGWHzpU94Xd72XO-1" value="VN-INC-PRD-AVD" style="image;aspect=fixed;html=1;points=[];align=left;fontSize=12;image=img/lib/azure2/networking/Virtual_Networks.svg;labelPosition=right;verticalLabelPosition=middle;verticalAlign=middle;" vertex="1" parent="1">
          <mxGeometry x="3330.5" y="2100" width="67" height="40" as="geometry" />
        </mxCell>
        <mxCell id="ixNkMtGWHzpU94Xd72XO-3" value="SN-AVD-01" style="rounded=1;whiteSpace=wrap;html=1;dashed=1;fillColor=none;labelPosition=center;verticalLabelPosition=top;align=center;verticalAlign=bottom;" vertex="1" parent="1">
          <mxGeometry x="3352.5" y="2159" width="295" height="301" as="geometry" />
        </mxCell>
        <mxCell id="ixNkMtGWHzpU94Xd72XO-4" value="HP-INC-PRD-HF60-PE108-01&lt;br&gt;Hosts: 1&lt;br&gt;Size: NV12s_v3" style="image;aspect=fixed;html=1;points=[];align=left;fontSize=12;image=img/lib/azure2/compute/VM_Scale_Sets.svg;labelPosition=right;verticalLabelPosition=middle;verticalAlign=middle;" vertex="1" parent="1">
          <mxGeometry x="3392.5" y="2246" width="68" height="68" as="geometry" />
        </mxCell>
        <mxCell id="ixNkMtGWHzpU94Xd72XO-6" value="" style="shape=flexArrow;endArrow=classic;startArrow=classic;html=1;rounded=0;edgeStyle=orthogonalEdgeStyle;exitX=0.96;exitY=1.002;exitDx=0;exitDy=0;exitPerimeter=0;entryX=0.535;entryY=0.002;entryDx=0;entryDy=0;entryPerimeter=0;" edge="1" parent="1" source="F9b7wbA0G8LodQH_zVjR-1" target="ixNkMtGWHzpU94Xd72XO-5">
          <mxGeometry width="100" height="100" relative="1" as="geometry">
            <mxPoint x="3540" y="1965" as="sourcePoint" />
            <mxPoint x="3640" y="1964" as="targetPoint" />
          </mxGeometry>
        </mxCell>
        <mxCell id="h72w_ylcQlOeMJLz0z-X-1" value="VN-INC-PRD-EngApp-01" style="image;aspect=fixed;html=1;points=[];align=left;fontSize=12;image=img/lib/azure2/networking/Virtual_Networks.svg;labelPosition=right;verticalLabelPosition=middle;verticalAlign=middle;" vertex="1" parent="1">
          <mxGeometry x="2870" y="2100" width="67" height="40" as="geometry" />
        </mxCell>
        <mxCell id="h72w_ylcQlOeMJLz0z-X-3" value="APP001PRDINCAZR" style="image;aspect=fixed;html=1;points=[];align=left;fontSize=12;image=img/lib/azure2/compute/Virtual_Machine.svg;labelPosition=right;verticalLabelPosition=middle;verticalAlign=middle;" vertex="1" parent="1">
          <mxGeometry x="2986" y="2219" width="69" height="64" as="geometry" />
        </mxCell>
        <mxCell id="9XVGheTuhWzWQ7pgWtbg-2" value="" style="shape=flexArrow;endArrow=classic;startArrow=classic;html=1;rounded=0;edgeStyle=orthogonalEdgeStyle;entryX=0.303;entryY=1.003;entryDx=0;entryDy=0;entryPerimeter=0;" edge="1" parent="1">
          <mxGeometry width="100" height="100" relative="1" as="geometry">
            <mxPoint x="3100" y="2130" as="sourcePoint" />
            <mxPoint x="3100" y="2050" as="targetPoint" />
          </mxGeometry>
        </mxCell>
        <mxCell id="A5kOPvEqb_d3nD17Dlqo-3" value="APP100PRDEUNAZR" style="image;aspect=fixed;html=1;points=[];align=left;fontSize=12;image=img/lib/azure2/compute/Virtual_Machine.svg;labelPosition=right;verticalLabelPosition=middle;verticalAlign=middle;" vertex="1" parent="1">
          <mxGeometry x="3744" y="1816" width="69" height="64" as="geometry" />
        </mxCell>
        <mxCell id="A5kOPvEqb_d3nD17Dlqo-6" value="VN-EUN-PRD-App" style="image;aspect=fixed;html=1;points=[];align=left;fontSize=12;image=img/lib/azure2/networking/Virtual_Networks.svg;labelPosition=right;verticalLabelPosition=middle;verticalAlign=middle;" vertex="1" parent="1">
          <mxGeometry x="3626.5" y="1650" width="67" height="40" as="geometry" />
        </mxCell>
        <mxCell id="A5kOPvEqb_d3nD17Dlqo-7" value="" style="shape=flexArrow;endArrow=classic;startArrow=classic;html=1;rounded=0;edgeStyle=orthogonalEdgeStyle;exitX=1;exitY=0.378;exitDx=0;exitDy=0;exitPerimeter=0;entryX=0;entryY=0.281;entryDx=0;entryDy=0;entryPerimeter=0;" edge="1" parent="1" target="A5kOPvEqb_d3nD17Dlqo-5">
          <mxGeometry width="100" height="100" relative="1" as="geometry">
            <mxPoint x="3540" y="1781" as="sourcePoint" />
            <mxPoint x="3626.5" y="1780" as="targetPoint" />
          </mxGeometry>
        </mxCell>
        <mxCell id="xatD9anJeiII0eRclxIZ-1" value="" style="shape=flexArrow;endArrow=classic;startArrow=classic;html=1;rounded=0;edgeStyle=orthogonalEdgeStyle;exitX=1;exitY=0.378;exitDx=0;exitDy=0;exitPerimeter=0;" edge="1" parent="1">
          <mxGeometry width="100" height="100" relative="1" as="geometry">
            <mxPoint x="2790" y="1771" as="sourcePoint" />
            <mxPoint x="2875" y="1770" as="targetPoint" />
          </mxGeometry>
        </mxCell>
        <mxCell id="mfxDtnyPflheAssiBzBT-1" value="saeunprdlzavd01fnc" style="image;aspect=fixed;html=1;points=[];align=center;fontSize=12;image=img/lib/azure2/storage/Storage_Accounts.svg;" vertex="1" parent="1">
          <mxGeometry x="4181.5" y="1280" width="65" height="52" as="geometry" />
        </mxCell>
        <mxCell id="eOFLQupXp69XlsLP1PML-1" value="saincprdlzavd01fnc" style="image;aspect=fixed;html=1;points=[];align=center;fontSize=12;image=img/lib/azure2/storage/Storage_Accounts.svg;" vertex="1" parent="1">
          <mxGeometry x="3467.5" y="2340" width="65" height="52" as="geometry" />
        </mxCell>
        <mxCell id="ZPy0nGNqDK_flPAVU2eS-1" value="saeunprdlzavd02fnc" style="image;aspect=fixed;html=1;points=[];align=center;fontSize=12;image=img/lib/azure2/storage/Storage_Accounts.svg;" vertex="1" parent="1">
          <mxGeometry x="3996.5" y="1816" width="65" height="52" as="geometry" />
        </mxCell>
        <mxCell id="pVeSjcj45egwYG-nnLHn-1" value="sa01vdisasazr" style="image;aspect=fixed;html=1;points=[];align=center;fontSize=12;image=img/lib/azure2/storage/Storage_Accounts.svg;" vertex="1" parent="1">
          <mxGeometry x="2111.5" y="1636" width="65" height="52" as="geometry" />
        </mxCell>
        <mxCell id="E6wfx-WRw8bkbsHmlMTX-1" value="sa02vdisasazr" style="image;aspect=fixed;html=1;points=[];align=center;fontSize=12;image=img/lib/azure2/storage/Storage_Accounts.svg;" vertex="1" parent="1">
          <mxGeometry x="2220" y="1636" width="65" height="52" as="geometry" />
        </mxCell>
      </root>
    </mxGraphModel>
  </diagram>
</mxfile>
